{"glyphs":{"0":{"ha":857,"x_min":53,"x_max":803,"o":"m 428 -11 q 626 39 542 -11 q 756 200 710 89 q 803 494 803 311 l 803 511 q 713 892 803 757 q 428 1026 622 1026 q 144 892 235 1026 q 53 511 53 757 l 53 494 q 100 200 53 311 q 231 39 147 89 q 428 -11 315 -11 m 428 176 q 315 227 356 176 q 274 375 274 278 l 274 640 q 310 784 274 729 q 428 839 347 839 q 547 784 510 839 q 583 640 583 729 l 583 375 q 542 227 583 278 q 428 176 501 176 z "},"1":{"ha":671,"x_min":69,"x_max":532,"o":"m 314 0 l 532 0 l 532 1013 l 349 1013 l 318 835 l 69 835 l 69 668 l 314 668 l 314 0 z "},"2":{"ha":829,"x_min":56,"x_max":763,"o":"m 67 0 l 763 0 l 763 179 l 349 179 l 574 400 q 709 561 665 485 q 753 731 753 638 q 710 890 753 824 q 591 991 667 956 q 418 1026 515 1026 q 225 985 307 1026 q 99 868 143 944 q 60 682 56 792 l 271 682 q 303 800 268 758 q 406 842 338 842 q 494 811 461 842 q 528 729 528 781 l 528 692 q 486 598 528 650 q 396 496 444 546 l 67 168 l 67 0 z "},"3":{"ha":849,"x_min":47,"x_max":785,"o":"m 407 -14 q 610 25 525 -14 q 740 133 694 64 q 785 294 785 203 q 735 450 785 386 q 601 529 685 514 l 601 539 q 715 618 671 560 q 760 757 760 676 q 718 901 760 842 q 601 994 676 961 q 426 1026 526 1026 q 158 944 258 1026 q 56 708 57 861 l 267 708 q 309 812 269 778 q 411 846 349 846 q 505 817 468 846 q 542 736 542 789 l 542 704 q 503 626 542 656 q 399 596 465 596 l 304 596 l 304 436 l 418 436 q 523 407 485 436 q 561 321 561 378 l 561 289 q 520 200 561 233 q 414 167 479 167 q 305 201 347 167 q 263 304 263 236 l 49 304 q 92 133 47 204 q 217 24 136 61 q 407 -14 299 -14 z "},"4":{"ha":914,"x_min":57,"x_max":869,"o":"m 510 0 l 728 0 l 728 215 l 869 215 l 869 392 l 728 392 l 728 596 l 550 596 l 510 392 l 301 392 l 301 404 l 603 1013 l 374 1013 l 57 367 l 57 215 l 510 215 l 510 0 z "},"5":{"ha":847,"x_min":67,"x_max":786,"o":"m 410 -14 q 685 79 583 -14 q 786 333 786 172 q 699 583 786 497 q 472 669 613 669 q 366 649 417 669 q 288 593 315 629 l 278 596 l 299 832 l 746 832 l 746 1013 l 101 1013 l 74 404 l 288 404 q 333 469 297 444 q 419 493 369 493 q 523 458 483 493 q 563 360 563 424 l 563 307 q 524 208 563 244 q 417 171 486 171 q 319 203 358 171 q 278 290 281 235 l 68 290 q 108 131 67 200 q 226 24 149 63 q 410 -14 304 -14 z "},"6":{"ha":868,"x_min":58,"x_max":817,"o":"m 442 -14 q 639 24 554 -14 q 770 142 724 63 q 817 342 817 221 q 736 582 817 497 q 519 667 656 667 q 374 626 438 667 q 289 517 311 586 l 279 517 q 278 553 278 536 q 278 588 278 571 q 449 847 278 847 q 542 824 506 847 q 586 750 579 800 l 796 750 q 699 952 789 878 q 464 1026 608 1026 q 251 976 343 1026 q 109 815 160 925 q 58 522 58 704 l 58 481 q 105 197 58 306 q 238 37 151 88 q 442 -14 324 -14 m 451 171 q 352 207 390 171 q 314 315 314 243 l 314 386 q 363 472 325 439 q 456 504 400 504 q 557 467 522 504 q 592 369 592 431 l 592 306 q 556 210 592 249 q 451 171 521 171 z "},"7":{"ha":838,"x_min":50,"x_max":782,"o":"m 251 0 l 474 0 q 497 198 474 97 q 561 382 521 299 l 782 851 l 782 1013 l 50 1013 l 50 656 l 224 656 l 224 824 l 546 824 l 546 804 l 368 469 q 293 299 318 376 q 260 149 268 221 q 251 0 251 78 z "},"8":{"ha":868,"x_min":58,"x_max":810,"o":"m 435 -14 q 637 23 553 -14 q 765 126 721 60 q 810 276 810 192 q 758 444 810 379 q 619 524 706 510 l 619 533 q 744 616 701 557 q 786 751 786 675 q 690 955 786 883 q 435 1026 594 1026 q 178 956 275 1026 q 82 753 82 885 q 126 614 82 672 q 250 533 169 556 l 250 524 q 109 439 160 507 q 58 276 58 371 q 103 126 58 192 q 231 23 147 60 q 435 -14 315 -14 m 435 585 q 339 613 379 585 q 299 700 299 640 l 299 732 q 335 820 299 789 q 435 851 371 851 q 533 820 497 851 q 569 732 569 789 l 569 700 q 530 613 569 640 q 435 585 490 585 m 435 161 q 324 194 367 161 q 282 289 282 228 l 282 321 q 322 415 282 382 q 435 447 361 447 q 547 415 508 447 q 586 321 586 382 l 586 289 q 545 194 586 228 q 435 161 504 161 z "},"9":{"ha":867,"x_min":50,"x_max":808,"o":"m 403 -14 q 616 37 525 -14 q 758 199 707 88 q 808 490 808 310 l 808 532 q 762 817 808 708 q 629 976 715 925 q 425 1026 543 1026 q 228 988 313 1026 q 97 871 144 950 q 50 671 50 792 q 131 431 50 515 q 347 346 213 346 q 493 387 431 346 q 578 496 556 428 l 588 496 q 589 460 589 478 q 589 425 589 442 q 418 165 589 165 q 325 188 363 165 q 281 263 288 211 l 71 263 q 169 61 78 136 q 403 -14 260 -14 m 411 508 q 310 546 344 508 q 275 643 275 583 l 275 707 q 310 803 275 764 q 415 842 346 842 q 515 806 476 842 q 553 697 553 771 l 553 626 q 505 542 542 575 q 411 508 468 508 z "},"A":{"ha":1000,"x_min":1,"x_max":999,"o":"m 1 0 l 221 0 l 289 203 l 706 203 l 774 0 l 999 0 l 657 1013 l 342 1013 l 1 0 m 342 376 l 442 679 l 493 836 l 501 836 l 553 679 l 653 376 l 342 376 z "},"Á":{"ha":1000,"x_min":1,"x_max":999,"o":"m 1 0 l 221 0 l 289 203 l 706 203 l 774 0 l 999 0 l 657 1013 l 342 1013 l 1 0 m 342 376 l 442 679 l 493 836 l 501 836 l 553 679 l 653 376 l 342 376 z "},"Ă":{"ha":1000,"x_min":1,"x_max":999,"o":"m 1 0 l 221 0 l 289 203 l 706 203 l 774 0 l 999 0 l 657 1013 l 342 1013 l 1 0 m 342 376 l 442 679 l 493 836 l 501 836 l 553 679 l 653 376 l 342 376 z "},"Â":{"ha":1000,"x_min":1,"x_max":999,"o":"m 1 0 l 221 0 l 289 203 l 706 203 l 774 0 l 999 0 l 657 1013 l 342 1013 l 1 0 m 342 376 l 442 679 l 493 836 l 501 836 l 553 679 l 653 376 l 342 376 z "},"Ä":{"ha":1000,"x_min":1,"x_max":999,"o":"m 1 0 l 221 0 l 289 203 l 706 203 l 774 0 l 999 0 l 657 1013 l 342 1013 l 1 0 m 342 376 l 442 679 l 493 836 l 501 836 l 553 679 l 653 376 l 342 376 z "},"À":{"ha":1000,"x_min":1,"x_max":999,"o":"m 1 0 l 221 0 l 289 203 l 706 203 l 774 0 l 999 0 l 657 1013 l 342 1013 l 1 0 m 342 376 l 442 679 l 493 836 l 501 836 l 553 679 l 653 376 l 342 376 z "},"Ā":{"ha":1000,"x_min":1,"x_max":999,"o":"m 1 0 l 221 0 l 289 203 l 706 203 l 774 0 l 999 0 l 657 1013 l 342 1013 l 1 0 m 342 376 l 442 679 l 493 836 l 501 836 l 553 679 l 653 376 l 342 376 z "},"Ą":{"ha":1000,"x_min":1,"x_max":1075,"o":"m 1 0 l 221 0 l 289 203 l 706 203 l 774 0 l 999 0 l 657 1013 l 342 1013 l 1 0 m 342 376 l 442 679 l 493 836 l 501 836 l 553 679 l 653 376 l 342 376 m 929 -262 l 1047 -262 l 1075 -128 l 988 -128 q 921 -107 936 -128 q 917 -43 906 -86 l 936 31 l 846 26 q 791 -54 815 -12 q 767 -140 767 -96 q 809 -231 767 -199 q 929 -262 851 -262 z "},"Å":{"ha":1000,"x_min":1,"x_max":999,"o":"m 1 0 l 221 0 l 289 203 l 706 203 l 774 0 l 999 0 l 657 1013 l 342 1013 l 1 0 m 342 376 l 442 679 l 493 836 l 501 836 l 553 679 l 653 376 l 342 376 z "},"Ã":{"ha":1000,"x_min":1,"x_max":999,"o":"m 1 0 l 221 0 l 289 203 l 706 203 l 774 0 l 999 0 l 657 1013 l 342 1013 l 1 0 m 342 376 l 442 679 l 493 836 l 501 836 l 553 679 l 653 376 l 342 376 z "},"Æ":{"ha":1383,"x_min":1,"x_max":1311,"o":"m 1 0 l 221 0 l 290 203 l 703 203 l 774 0 l 1311 0 l 1311 193 l 936 193 l 854 424 l 1239 424 l 1239 604 l 796 604 l 721 819 l 1311 819 l 1311 1013 l 342 1013 l 1 0 m 347 376 l 422 603 l 493 831 l 501 831 l 571 606 l 647 376 l 347 376 z "},"B":{"ha":1004,"x_min":115,"x_max":961,"o":"m 115 0 l 596 0 q 788 29 706 0 q 915 121 869 58 q 961 283 961 183 q 906 447 961 383 q 760 519 850 511 l 760 529 q 889 608 844 547 q 933 754 933 669 q 858 943 933 874 q 617 1013 782 1013 l 115 1013 l 115 0 m 557 847 q 661 823 622 847 q 700 740 700 799 l 700 708 q 663 628 700 657 q 557 599 626 599 l 336 599 l 336 847 l 557 847 m 569 438 q 683 406 643 438 q 722 321 722 375 l 722 286 q 681 196 722 226 q 569 165 639 165 l 336 165 l 336 438 l 569 438 z "},"C":{"ha":1061,"x_min":54,"x_max":1007,"o":"m 549 -14 q 772 31 672 -14 q 934 158 872 76 q 1007 349 996 240 l 774 349 q 695 227 758 271 q 549 183 632 183 q 361 247 429 183 q 293 426 293 310 l 293 585 q 356 760 293 692 q 549 828 419 828 q 693 787 631 828 q 774 665 756 746 l 1007 665 q 935 854 996 774 q 776 980 875 935 q 549 1025 676 1025 q 288 966 399 1025 q 115 792 176 907 q 54 507 54 676 l 54 503 q 110 227 54 343 q 276 49 165 111 q 549 -14 386 -14 z "},"Ć":{"ha":1061,"x_min":54,"x_max":1007,"o":"m 549 -14 q 772 31 672 -14 q 934 158 872 76 q 1007 349 996 240 l 774 349 q 695 227 758 271 q 549 183 632 183 q 361 247 429 183 q 293 426 293 310 l 293 585 q 356 760 293 692 q 549 828 419 828 q 693 787 631 828 q 774 665 756 746 l 1007 665 q 935 854 996 774 q 776 980 875 935 q 549 1025 676 1025 q 288 966 399 1025 q 115 792 176 907 q 54 507 54 676 l 54 503 q 110 227 54 343 q 276 49 165 111 q 549 -14 386 -14 z "},"Č":{"ha":1061,"x_min":54,"x_max":1007,"o":"m 549 -14 q 772 31 672 -14 q 934 158 872 76 q 1007 349 996 240 l 774 349 q 695 227 758 271 q 549 183 632 183 q 361 247 429 183 q 293 426 293 310 l 293 585 q 356 760 293 692 q 549 828 419 828 q 693 787 631 828 q 774 665 756 746 l 1007 665 q 935 854 996 774 q 776 980 875 935 q 549 1025 676 1025 q 288 966 399 1025 q 115 792 176 907 q 54 507 54 676 l 54 503 q 110 227 54 343 q 276 49 165 111 q 549 -14 386 -14 z "},"Ç":{"ha":1061,"x_min":54,"x_max":1007,"o":"m 549 -14 q 772 31 672 -14 q 934 158 872 76 q 1007 349 996 240 l 774 349 q 695 227 758 271 q 549 183 632 183 q 361 247 429 183 q 293 426 293 310 l 293 585 q 356 760 293 692 q 549 828 419 828 q 693 787 631 828 q 774 665 756 746 l 1007 665 q 935 854 996 774 q 776 980 875 935 q 549 1025 676 1025 q 288 966 399 1025 q 115 792 176 907 q 54 507 54 676 l 54 503 q 110 227 54 343 q 276 49 165 111 q 549 -14 386 -14 z "},"Ċ":{"ha":1061,"x_min":54,"x_max":1007,"o":"m 549 -14 q 772 31 672 -14 q 934 158 872 76 q 1007 349 996 240 l 774 349 q 695 227 758 271 q 549 183 632 183 q 361 247 429 183 q 293 426 293 310 l 293 585 q 356 760 293 692 q 549 828 419 828 q 693 787 631 828 q 774 665 756 746 l 1007 665 q 935 854 996 774 q 776 980 875 935 q 549 1025 676 1025 q 288 966 399 1025 q 115 792 176 907 q 54 507 54 676 l 54 503 q 110 227 54 343 q 276 49 165 111 q 549 -14 386 -14 z "},"D":{"ha":1076,"x_min":115,"x_max":1022,"o":"m 115 0 l 531 0 q 788 54 678 0 q 960 219 899 108 q 1022 501 1022 331 l 1022 511 q 899 881 1022 747 q 531 1014 775 1014 l 115 1014 l 115 0 m 343 193 l 343 821 l 531 821 q 720 756 658 821 q 782 585 782 692 l 782 429 q 718 256 782 319 q 531 193 654 193 l 343 193 z "},"Ð":{"ha":1076,"x_min":29,"x_max":1022,"o":"m 115 0 l 531 0 q 788 54 678 0 q 960 219 899 108 q 1022 501 1022 331 l 1022 511 q 899 881 1022 747 q 531 1014 775 1014 l 115 1014 l 115 0 m 343 193 l 343 821 l 531 821 q 720 756 658 821 q 782 585 782 692 l 782 429 q 718 256 782 319 q 531 193 654 193 l 343 193 m 29 442 l 474 442 l 474 572 l 29 572 l 29 442 z "},"Ď":{"ha":1076,"x_min":115,"x_max":1022,"o":"m 115 0 l 531 0 q 788 54 678 0 q 960 219 899 108 q 1022 501 1022 331 l 1022 511 q 899 881 1022 747 q 531 1014 775 1014 l 115 1014 l 115 0 m 343 193 l 343 821 l 531 821 q 720 756 658 821 q 782 585 782 692 l 782 429 q 718 256 782 319 q 531 193 654 193 l 343 193 z "},"Đ":{"ha":1076,"x_min":29,"x_max":1022,"o":"m 115 0 l 531 0 q 788 54 678 0 q 960 219 899 108 q 1022 501 1022 331 l 1022 511 q 899 881 1022 747 q 531 1014 775 1014 l 115 1014 l 115 0 m 343 193 l 343 821 l 531 821 q 720 756 658 821 q 782 585 782 692 l 782 429 q 718 256 782 319 q 531 193 654 193 l 343 193 m 29 442 l 474 442 l 474 572 l 29 572 l 29 442 z "},"E":{"ha":958,"x_min":115,"x_max":886,"o":"m 115 0 l 886 0 l 886 193 l 343 193 l 343 424 l 815 424 l 815 604 l 343 604 l 343 819 l 886 819 l 886 1013 l 115 1013 l 115 0 z "},"É":{"ha":958,"x_min":115,"x_max":886,"o":"m 115 0 l 886 0 l 886 193 l 343 193 l 343 424 l 815 424 l 815 604 l 343 604 l 343 819 l 886 819 l 886 1013 l 115 1013 l 115 0 z "},"Ě":{"ha":958,"x_min":115,"x_max":886,"o":"m 115 0 l 886 0 l 886 193 l 343 193 l 343 424 l 815 424 l 815 604 l 343 604 l 343 819 l 886 819 l 886 1013 l 115 1013 l 115 0 z "},"Ê":{"ha":958,"x_min":115,"x_max":886,"o":"m 115 0 l 886 0 l 886 193 l 343 193 l 343 424 l 815 424 l 815 604 l 343 604 l 343 819 l 886 819 l 886 1013 l 115 1013 l 115 0 z "},"Ë":{"ha":958,"x_min":115,"x_max":886,"o":"m 115 0 l 886 0 l 886 193 l 343 193 l 343 424 l 815 424 l 815 604 l 343 604 l 343 819 l 886 819 l 886 1013 l 115 1013 l 115 0 z "},"Ė":{"ha":958,"x_min":115,"x_max":886,"o":"m 115 0 l 886 0 l 886 193 l 343 193 l 343 424 l 815 424 l 815 604 l 343 604 l 343 819 l 886 819 l 886 1013 l 115 1013 l 115 0 z "},"È":{"ha":958,"x_min":115,"x_max":886,"o":"m 115 0 l 886 0 l 886 193 l 343 193 l 343 424 l 815 424 l 815 604 l 343 604 l 343 819 l 886 819 l 886 1013 l 115 1013 l 115 0 z "},"Ē":{"ha":958,"x_min":115,"x_max":886,"o":"m 115 0 l 886 0 l 886 193 l 343 193 l 343 424 l 815 424 l 815 604 l 343 604 l 343 819 l 886 819 l 886 1013 l 115 1013 l 115 0 z "},"Ę":{"ha":958,"x_min":115,"x_max":908,"o":"m 115 0 l 886 0 l 886 193 l 343 193 l 343 424 l 815 424 l 815 604 l 343 604 l 343 819 l 886 819 l 886 1013 l 115 1013 l 115 0 m 763 -262 l 881 -262 l 908 -128 l 821 -128 q 754 -107 769 -128 q 750 -43 739 -86 l 769 31 l 679 26 q 624 -54 649 -12 q 600 -140 600 -96 q 642 -231 600 -199 q 763 -262 685 -262 z "},"F":{"ha":888,"x_min":115,"x_max":849,"o":"m 115 0 l 343 0 l 343 390 l 793 390 l 793 574 l 343 574 l 343 819 l 849 819 l 849 1013 l 115 1013 l 115 0 z "},"G":{"ha":1119,"x_min":54,"x_max":1028,"o":"m 506 -14 q 715 36 625 -14 q 835 171 804 86 l 843 171 l 860 0 l 1028 0 l 1028 544 l 542 544 l 542 383 l 794 383 q 723 230 788 283 q 544 176 658 176 q 362 239 431 176 q 293 424 293 301 l 293 582 q 358 760 293 692 q 554 829 424 829 q 707 791 644 829 q 788 678 769 753 l 1021 678 q 950 864 1011 786 q 788 984 889 942 q 557 1026 688 1026 q 294 968 407 1026 q 117 792 181 910 q 54 500 54 675 l 54 494 q 171 115 54 243 q 506 -14 288 -14 z "},"Ğ":{"ha":1119,"x_min":54,"x_max":1028,"o":"m 506 -14 q 715 36 625 -14 q 835 171 804 86 l 843 171 l 860 0 l 1028 0 l 1028 544 l 542 544 l 542 383 l 794 383 q 723 230 788 283 q 544 176 658 176 q 362 239 431 176 q 293 424 293 301 l 293 582 q 358 760 293 692 q 554 829 424 829 q 707 791 644 829 q 788 678 769 753 l 1021 678 q 950 864 1011 786 q 788 984 889 942 q 557 1026 688 1026 q 294 968 407 1026 q 117 792 181 910 q 54 500 54 675 l 54 494 q 171 115 54 243 q 506 -14 288 -14 z "},"Ģ":{"ha":1119,"x_min":54,"x_max":1028,"o":"m 506 -14 q 715 36 625 -14 q 835 171 804 86 l 843 171 l 860 0 l 1028 0 l 1028 544 l 542 544 l 542 383 l 794 383 q 723 230 788 283 q 544 176 658 176 q 362 239 431 176 q 293 424 293 301 l 293 582 q 358 760 293 692 q 554 829 424 829 q 707 791 644 829 q 788 678 769 753 l 1021 678 q 950 864 1011 786 q 788 984 889 942 q 557 1026 688 1026 q 294 968 407 1026 q 117 792 181 910 q 54 500 54 675 l 54 494 q 171 115 54 243 q 506 -14 288 -14 m 440 -436 l 490 -436 q 602 -397 560 -435 q 644 -271 644 -360 l 644 -79 l 449 -79 l 449 -232 l 547 -232 l 547 -254 q 530 -309 547 -289 q 469 -331 513 -329 l 440 -329 l 440 -436 z "},"Ġ":{"ha":1119,"x_min":54,"x_max":1028,"o":"m 506 -14 q 715 36 625 -14 q 835 171 804 86 l 843 171 l 860 0 l 1028 0 l 1028 544 l 542 544 l 542 383 l 794 383 q 723 230 788 283 q 544 176 658 176 q 362 239 431 176 q 293 424 293 301 l 293 582 q 358 760 293 692 q 554 829 424 829 q 707 791 644 829 q 788 678 769 753 l 1021 678 q 950 864 1011 786 q 788 984 889 942 q 557 1026 688 1026 q 294 968 407 1026 q 117 792 181 910 q 54 500 54 675 l 54 494 q 171 115 54 243 q 506 -14 288 -14 z "},"H":{"ha":1104,"x_min":115,"x_max":989,"o":"m 115 0 l 343 0 l 343 417 l 763 417 l 763 0 l 989 0 l 989 1013 l 763 1013 l 763 610 l 343 610 l 343 1013 l 115 1013 l 115 0 z "},"Ħ":{"ha":1104,"x_min":6,"x_max":1101,"o":"m 115 0 l 343 0 l 343 417 l 763 417 l 763 0 l 989 0 l 989 1013 l 763 1013 l 763 610 l 343 610 l 343 1013 l 115 1013 l 115 0 m 6 750 l 1101 750 l 1101 913 l 6 913 l 6 750 z "},"I":{"ha":458,"x_min":115,"x_max":343,"o":"m 115 0 l 343 0 l 343 1013 l 115 1013 l 115 0 z "},"Í":{"ha":458,"x_min":115,"x_max":438,"o":"m 115 0 l 343 0 l 343 1013 l 115 1013 l 115 0 z "},"Î":{"ha":458,"x_min":-29,"x_max":490,"o":"m 115 0 l 343 0 l 343 1013 l 115 1013 l 115 0 z "},"Ï":{"ha":458,"x_min":-35,"x_max":492,"o":"m 115 0 l 343 0 l 343 1013 l 115 1013 l 115 0 z "},"İ":{"ha":458,"x_min":115,"x_max":343,"o":"m 115 0 l 343 0 l 343 1013 l 115 1013 l 115 0 z "},"Ì":{"ha":458,"x_min":19,"x_max":343,"o":"m 115 0 l 343 0 l 343 1013 l 115 1013 l 115 0 z "},"Ī":{"ha":458,"x_min":-18,"x_max":476,"o":"m 115 0 l 343 0 l 343 1013 l 115 1013 l 115 0 z "},"Į":{"ha":458,"x_min":114,"x_max":422,"o":"m 115 0 l 343 0 l 343 1013 l 115 1013 l 115 0 m 276 -262 l 394 -262 l 422 -128 l 335 -128 q 268 -107 283 -128 q 264 -43 253 -86 l 283 31 l 193 26 q 138 -54 163 -12 q 114 -140 114 -96 q 156 -231 114 -199 q 276 -262 199 -262 z "},"J":{"ha":631,"x_min":49,"x_max":514,"o":"m 49 0 l 329 0 q 463 46 413 0 q 514 186 514 92 l 514 1013 l 289 1013 l 289 194 l 49 194 l 49 0 z "},"K":{"ha":1040,"x_min":115,"x_max":1019,"o":"m 115 0 l 343 0 l 343 264 l 476 410 l 744 0 l 1019 0 l 636 583 l 1006 1013 l 728 1013 l 343 542 l 343 1013 l 115 1013 l 115 0 z "},"Ķ":{"ha":1040,"x_min":115,"x_max":1019,"o":"m 115 0 l 343 0 l 343 264 l 476 410 l 744 0 l 1019 0 l 636 583 l 1006 1013 l 728 1013 l 343 542 l 343 1013 l 115 1013 l 115 0 m 419 -436 l 469 -436 q 581 -397 539 -435 q 624 -271 624 -360 l 624 -79 l 428 -79 l 428 -232 l 526 -232 l 526 -254 q 509 -309 526 -289 q 449 -331 492 -329 l 419 -329 l 419 -436 z "},"L":{"ha":874,"x_min":115,"x_max":818,"o":"m 115 0 l 818 0 l 818 200 l 343 200 l 343 1013 l 115 1013 l 115 0 z "},"Ĺ":{"ha":874,"x_min":115,"x_max":818,"o":"m 115 0 l 818 0 l 818 200 l 343 200 l 343 1013 l 115 1013 l 115 0 z "},"Ľ":{"ha":874,"x_min":-31,"x_max":818,"o":"m 115 0 l 818 0 l 818 200 l 343 200 l 343 1013 l 115 1013 l 115 0 z "},"Ļ":{"ha":874,"x_min":115,"x_max":818,"o":"m 115 0 l 818 0 l 818 200 l 343 200 l 343 1013 l 115 1013 l 115 0 m 356 -436 l 406 -436 q 517 -397 475 -435 q 560 -271 560 -360 l 560 -79 l 364 -79 l 364 -232 l 463 -232 l 463 -254 q 445 -309 463 -289 q 385 -331 428 -329 l 356 -329 l 356 -436 z "},"Ł":{"ha":874,"x_min":19,"x_max":818,"o":"m 115 0 l 818 0 l 818 200 l 343 200 l 343 465 l 544 521 l 544 681 l 343 625 l 343 1013 l 115 1013 l 115 564 l 19 538 l 19 378 l 115 404 l 115 0 z "},"M":{"ha":1343,"x_min":115,"x_max":1228,"o":"m 115 0 l 332 0 l 332 765 l 343 765 l 360 692 l 567 0 l 775 0 l 981 692 l 999 765 l 1008 765 l 1008 0 l 1228 0 l 1228 1013 l 881 1013 l 672 300 l 664 300 l 453 1013 l 115 1013 l 115 0 z "},"N":{"ha":1104,"x_min":115,"x_max":988,"o":"m 115 0 l 332 0 l 332 676 l 339 676 l 357 643 l 717 0 l 988 0 l 988 1013 l 771 1013 l 771 336 l 764 336 l 744 379 l 406 1013 l 115 1013 l 115 0 z "},"Ń":{"ha":1104,"x_min":115,"x_max":988,"o":"m 115 0 l 332 0 l 332 676 l 339 676 l 357 643 l 717 0 l 988 0 l 988 1013 l 771 1013 l 771 336 l 764 336 l 744 379 l 406 1013 l 115 1013 l 115 0 z "},"Ň":{"ha":1104,"x_min":115,"x_max":988,"o":"m 115 0 l 332 0 l 332 676 l 339 676 l 357 643 l 717 0 l 988 0 l 988 1013 l 771 1013 l 771 336 l 764 336 l 744 379 l 406 1013 l 115 1013 l 115 0 z "},"Ņ":{"ha":1104,"x_min":115,"x_max":988,"o":"m 115 0 l 332 0 l 332 676 l 339 676 l 357 643 l 717 0 l 988 0 l 988 1013 l 771 1013 l 771 336 l 764 336 l 744 379 l 406 1013 l 115 1013 l 115 0 m 456 -436 l 506 -436 q 617 -397 575 -435 q 660 -271 660 -360 l 660 -79 l 464 -79 l 464 -232 l 563 -232 l 563 -254 q 545 -309 563 -289 q 485 -331 528 -329 l 456 -329 l 456 -436 z "},"Ŋ":{"ha":1124,"x_min":115,"x_max":1008,"o":"m 653 -232 l 822 -232 q 957 -187 906 -232 q 1008 -46 1008 -142 l 1008 1013 l 792 1013 l 792 285 l 782 285 l 757 351 l 417 1013 l 115 1013 l 115 0 l 332 0 l 332 732 l 342 732 l 361 672 l 704 0 l 794 0 l 794 -97 l 653 -97 l 653 -232 z "},"Ñ":{"ha":1104,"x_min":115,"x_max":988,"o":"m 115 0 l 332 0 l 332 676 l 339 676 l 357 643 l 717 0 l 988 0 l 988 1013 l 771 1013 l 771 336 l 764 336 l 744 379 l 406 1013 l 115 1013 l 115 0 z "},"O":{"ha":1099,"x_min":54,"x_max":1043,"o":"m 549 -14 q 822 49 713 -14 q 988 227 932 111 q 1043 503 1043 343 l 1043 507 q 982 792 1043 676 q 810 966 921 907 q 549 1025 700 1025 q 288 966 399 1025 q 115 792 176 907 q 54 507 54 676 l 54 503 q 110 227 54 343 q 276 49 165 111 q 549 -14 386 -14 m 549 183 q 361 247 429 183 q 293 426 293 310 l 293 585 q 356 760 293 692 q 549 828 419 828 q 741 760 678 828 q 804 585 804 692 l 804 426 q 736 247 804 310 q 549 183 668 183 z "},"Ó":{"ha":1099,"x_min":54,"x_max":1043,"o":"m 549 -14 q 822 49 713 -14 q 988 227 932 111 q 1043 503 1043 343 l 1043 507 q 982 792 1043 676 q 810 966 921 907 q 549 1025 700 1025 q 288 966 399 1025 q 115 792 176 907 q 54 507 54 676 l 54 503 q 110 227 54 343 q 276 49 165 111 q 549 -14 386 -14 m 549 183 q 361 247 429 183 q 293 426 293 310 l 293 585 q 356 760 293 692 q 549 828 419 828 q 741 760 678 828 q 804 585 804 692 l 804 426 q 736 247 804 310 q 549 183 668 183 z "},"Ô":{"ha":1099,"x_min":54,"x_max":1043,"o":"m 549 -14 q 822 49 713 -14 q 988 227 932 111 q 1043 503 1043 343 l 1043 507 q 982 792 1043 676 q 810 966 921 907 q 549 1025 700 1025 q 288 966 399 1025 q 115 792 176 907 q 54 507 54 676 l 54 503 q 110 227 54 343 q 276 49 165 111 q 549 -14 386 -14 m 549 183 q 361 247 429 183 q 293 426 293 310 l 293 585 q 356 760 293 692 q 549 828 419 828 q 741 760 678 828 q 804 585 804 692 l 804 426 q 736 247 804 310 q 549 183 668 183 z "},"Ö":{"ha":1099,"x_min":54,"x_max":1043,"o":"m 549 -14 q 822 49 713 -14 q 988 227 932 111 q 1043 503 1043 343 l 1043 507 q 982 792 1043 676 q 810 966 921 907 q 549 1025 700 1025 q 288 966 399 1025 q 115 792 176 907 q 54 507 54 676 l 54 503 q 110 227 54 343 q 276 49 165 111 q 549 -14 386 -14 m 549 183 q 361 247 429 183 q 293 426 293 310 l 293 585 q 356 760 293 692 q 549 828 419 828 q 741 760 678 828 q 804 585 804 692 l 804 426 q 736 247 804 310 q 549 183 668 183 z "},"Ò":{"ha":1099,"x_min":54,"x_max":1043,"o":"m 549 -14 q 822 49 713 -14 q 988 227 932 111 q 1043 503 1043 343 l 1043 507 q 982 792 1043 676 q 810 966 921 907 q 549 1025 700 1025 q 288 966 399 1025 q 115 792 176 907 q 54 507 54 676 l 54 503 q 110 227 54 343 q 276 49 165 111 q 549 -14 386 -14 m 549 183 q 361 247 429 183 q 293 426 293 310 l 293 585 q 356 760 293 692 q 549 828 419 828 q 741 760 678 828 q 804 585 804 692 l 804 426 q 736 247 804 310 q 549 183 668 183 z "},"Ő":{"ha":1099,"x_min":54,"x_max":1043,"o":"m 549 -14 q 822 49 713 -14 q 988 227 932 111 q 1043 503 1043 343 l 1043 507 q 982 792 1043 676 q 810 966 921 907 q 549 1025 700 1025 q 288 966 399 1025 q 115 792 176 907 q 54 507 54 676 l 54 503 q 110 227 54 343 q 276 49 165 111 q 549 -14 386 -14 m 549 183 q 361 247 429 183 q 293 426 293 310 l 293 585 q 356 760 293 692 q 549 828 419 828 q 741 760 678 828 q 804 585 804 692 l 804 426 q 736 247 804 310 q 549 183 668 183 z "},"Ō":{"ha":1099,"x_min":54,"x_max":1043,"o":"m 549 -14 q 822 49 713 -14 q 988 227 932 111 q 1043 503 1043 343 l 1043 507 q 982 792 1043 676 q 810 966 921 907 q 549 1025 700 1025 q 288 966 399 1025 q 115 792 176 907 q 54 507 54 676 l 54 503 q 110 227 54 343 q 276 49 165 111 q 549 -14 386 -14 m 549 183 q 361 247 429 183 q 293 426 293 310 l 293 585 q 356 760 293 692 q 549 828 419 828 q 741 760 678 828 q 804 585 804 692 l 804 426 q 736 247 804 310 q 549 183 668 183 z "},"Ø":{"ha":1099,"x_min":54,"x_max":1043,"o":"m 549 -14 q 822 49 713 -14 q 988 227 932 111 q 1043 503 1043 343 l 1043 507 q 982 792 1043 676 q 810 966 921 907 q 549 1025 700 1025 q 288 966 399 1025 q 115 792 176 907 q 54 507 54 676 l 54 503 q 110 227 54 343 q 276 49 165 111 q 549 -14 386 -14 m 549 183 q 361 247 429 183 q 293 426 293 310 l 293 585 q 356 760 293 692 q 549 828 419 828 q 741 760 678 828 q 804 585 804 692 l 804 426 q 736 247 804 310 q 549 183 668 183 m 79 -33 l 240 -33 l 1018 1047 l 856 1047 l 79 -33 z "},"Õ":{"ha":1099,"x_min":54,"x_max":1043,"o":"m 549 -14 q 822 49 713 -14 q 988 227 932 111 q 1043 503 1043 343 l 1043 507 q 982 792 1043 676 q 810 966 921 907 q 549 1025 700 1025 q 288 966 399 1025 q 115 792 176 907 q 54 507 54 676 l 54 503 q 110 227 54 343 q 276 49 165 111 q 549 -14 386 -14 m 549 183 q 361 247 429 183 q 293 426 293 310 l 293 585 q 356 760 293 692 q 549 828 419 828 q 741 760 678 828 q 804 585 804 692 l 804 426 q 736 247 804 310 q 549 183 668 183 z "},"Œ":{"ha":1538,"x_min":54,"x_max":1465,"o":"m 544 0 l 1465 0 l 1465 193 l 950 193 l 950 424 l 1393 424 l 1393 604 l 950 604 l 950 819 l 1465 819 l 1465 1013 l 544 1013 q 287 958 397 1013 q 115 794 176 904 q 54 511 54 683 l 54 501 q 178 133 54 267 q 544 0 301 0 m 546 192 q 356 257 418 192 q 293 428 293 322 l 293 583 q 358 757 293 694 q 546 819 422 819 l 724 819 l 724 192 l 546 192 z "},"P":{"ha":1011,"x_min":115,"x_max":957,"o":"m 115 0 l 343 0 l 343 322 l 575 322 q 863 417 769 322 q 957 668 957 513 q 865 919 957 826 q 586 1013 772 1013 l 115 1013 l 115 0 m 556 818 q 674 783 631 818 q 718 682 718 749 l 718 639 q 676 539 718 575 q 556 503 633 503 l 343 503 l 343 818 l 556 818 z "},"Þ":{"ha":992,"x_min":115,"x_max":938,"o":"m 115 0 l 343 0 l 343 160 l 564 160 q 837 251 736 160 q 938 506 938 342 q 845 760 938 665 q 563 854 753 854 l 343 854 l 343 1013 l 115 1013 l 115 0 m 343 350 l 343 661 l 538 661 q 654 631 611 661 q 697 535 697 601 l 697 476 q 658 383 697 417 q 538 350 618 350 l 343 350 z "},"Q":{"ha":1099,"x_min":54,"x_max":1043,"o":"m 586 -233 l 922 -233 l 922 -67 l 647 -67 l 647 24 q 939 172 835 49 q 1043 508 1043 294 l 1043 513 q 982 794 1043 681 q 810 967 921 908 q 549 1025 700 1025 q 288 967 399 1025 q 115 794 176 908 q 54 513 54 681 l 54 508 q 160 168 54 292 q 460 22 267 44 l 458 -119 q 490 -202 457 -171 q 586 -233 522 -233 m 550 203 q 363 266 431 203 q 294 447 294 329 l 294 585 q 358 760 294 692 q 550 828 421 828 q 742 760 679 828 q 806 585 806 692 l 806 447 q 738 266 806 329 q 550 203 669 203 z "},"R":{"ha":1029,"x_min":115,"x_max":969,"o":"m 115 0 l 343 0 l 343 360 l 490 360 l 704 0 l 969 0 l 725 394 q 896 497 835 419 q 957 689 957 575 q 867 925 957 838 q 596 1013 778 1013 l 115 1013 l 115 0 m 556 818 q 674 787 631 818 q 718 696 718 756 l 718 653 q 676 563 718 596 q 556 531 633 531 l 343 531 l 343 818 l 556 818 z "},"Ŕ":{"ha":1029,"x_min":115,"x_max":969,"o":"m 115 0 l 343 0 l 343 360 l 490 360 l 704 0 l 969 0 l 725 394 q 896 497 835 419 q 957 689 957 575 q 867 925 957 838 q 596 1013 778 1013 l 115 1013 l 115 0 m 556 818 q 674 787 631 818 q 718 696 718 756 l 718 653 q 676 563 718 596 q 556 531 633 531 l 343 531 l 343 818 l 556 818 z "},"Ř":{"ha":1029,"x_min":115,"x_max":969,"o":"m 115 0 l 343 0 l 343 360 l 490 360 l 704 0 l 969 0 l 725 394 q 896 497 835 419 q 957 689 957 575 q 867 925 957 838 q 596 1013 778 1013 l 115 1013 l 115 0 m 556 818 q 674 787 631 818 q 718 696 718 756 l 718 653 q 676 563 718 596 q 556 531 633 531 l 343 531 l 343 818 l 556 818 z "},"Ŗ":{"ha":1029,"x_min":115,"x_max":969,"o":"m 115 0 l 343 0 l 343 360 l 490 360 l 704 0 l 969 0 l 725 394 q 896 497 835 419 q 957 689 957 575 q 867 925 957 838 q 596 1013 778 1013 l 115 1013 l 115 0 m 556 818 q 674 787 631 818 q 718 696 718 756 l 718 653 q 676 563 718 596 q 556 531 633 531 l 343 531 l 343 818 l 556 818 m 425 -436 l 475 -436 q 587 -397 544 -435 q 629 -271 629 -360 l 629 -79 l 433 -79 l 433 -232 l 532 -232 l 532 -254 q 515 -309 532 -289 q 454 -331 497 -329 l 425 -329 l 425 -436 z "},"S":{"ha":953,"x_min":53,"x_max":894,"o":"m 472 -14 q 694 20 599 -14 q 842 125 789 54 q 894 303 894 196 q 849 474 894 411 q 724 569 803 536 q 546 618 644 601 q 422 642 474 631 q 344 678 371 654 q 317 746 317 701 q 358 824 317 796 q 471 853 399 853 q 597 819 553 853 q 643 722 642 785 l 872 722 q 767 946 871 867 q 471 1025 664 1025 q 263 990 353 1025 q 124 888 174 956 q 75 718 75 819 q 163 521 75 588 q 406 424 251 454 q 533 397 478 410 q 621 358 589 383 q 653 283 653 333 q 478 163 653 163 q 338 199 389 163 q 283 315 286 236 l 53 315 q 160 77 53 168 q 472 -14 267 -14 z "},"Ś":{"ha":953,"x_min":53,"x_max":894,"o":"m 472 -14 q 694 20 599 -14 q 842 125 789 54 q 894 303 894 196 q 849 474 894 411 q 724 569 803 536 q 546 618 644 601 q 422 642 474 631 q 344 678 371 654 q 317 746 317 701 q 358 824 317 796 q 471 853 399 853 q 597 819 553 853 q 643 722 642 785 l 872 722 q 767 946 871 867 q 471 1025 664 1025 q 263 990 353 1025 q 124 888 174 956 q 75 718 75 819 q 163 521 75 588 q 406 424 251 454 q 533 397 478 410 q 621 358 589 383 q 653 283 653 333 q 478 163 653 163 q 338 199 389 163 q 283 315 286 236 l 53 315 q 160 77 53 168 q 472 -14 267 -14 z "},"Š":{"ha":953,"x_min":53,"x_max":894,"o":"m 472 -14 q 694 20 599 -14 q 842 125 789 54 q 894 303 894 196 q 849 474 894 411 q 724 569 803 536 q 546 618 644 601 q 422 642 474 631 q 344 678 371 654 q 317 746 317 701 q 358 824 317 796 q 471 853 399 853 q 597 819 553 853 q 643 722 642 785 l 872 722 q 767 946 871 867 q 471 1025 664 1025 q 263 990 353 1025 q 124 888 174 956 q 75 718 75 819 q 163 521 75 588 q 406 424 251 454 q 533 397 478 410 q 621 358 589 383 q 653 283 653 333 q 478 163 653 163 q 338 199 389 163 q 283 315 286 236 l 53 315 q 160 77 53 168 q 472 -14 267 -14 z "},"Ş":{"ha":953,"x_min":53,"x_max":894,"o":"m 472 -14 q 694 20 599 -14 q 842 125 789 54 q 894 303 894 196 q 849 474 894 411 q 724 569 803 536 q 546 618 644 601 q 422 642 474 631 q 344 678 371 654 q 317 746 317 701 q 358 824 317 796 q 471 853 399 853 q 597 819 553 853 q 643 722 642 785 l 872 722 q 767 946 871 867 q 471 1025 664 1025 q 263 990 353 1025 q 124 888 174 956 q 75 718 75 819 q 163 521 75 588 q 406 424 251 454 q 533 397 478 410 q 621 358 589 383 q 653 283 653 333 q 478 163 653 163 q 338 199 389 163 q 283 315 286 236 l 53 315 q 160 77 53 168 q 472 -14 267 -14 z "},"Ș":{"ha":953,"x_min":53,"x_max":894,"o":"m 472 -14 q 694 20 599 -14 q 842 125 789 54 q 894 303 894 196 q 849 474 894 411 q 724 569 803 536 q 546 618 644 601 q 422 642 474 631 q 344 678 371 654 q 317 746 317 701 q 358 824 317 796 q 471 853 399 853 q 597 819 553 853 q 643 722 642 785 l 872 722 q 767 946 871 867 q 471 1025 664 1025 q 263 990 353 1025 q 124 888 174 956 q 75 718 75 819 q 163 521 75 588 q 406 424 251 454 q 533 397 478 410 q 621 358 589 383 q 653 283 653 333 q 478 163 653 163 q 338 199 389 163 q 283 315 286 236 l 53 315 q 160 77 53 168 q 472 -14 267 -14 m 374 -436 l 424 -436 q 535 -397 493 -435 q 578 -271 578 -360 l 578 -79 l 382 -79 l 382 -232 l 481 -232 l 481 -254 q 463 -309 481 -289 q 403 -331 446 -329 l 374 -329 l 374 -436 z "},"ẞ":{"ha":999,"x_min":115,"x_max":956,"o":"m 115 0 l 343 0 l 343 832 l 678 832 l 496 574 l 496 472 l 549 472 q 676 440 632 472 q 721 343 721 407 l 721 304 q 681 212 721 249 q 551 175 642 175 l 429 175 l 429 0 l 600 0 q 863 78 771 0 q 956 299 956 157 q 892 485 956 411 q 717 567 828 558 l 717 576 l 888 811 l 888 1013 l 115 1013 l 115 0 z "},"T":{"ha":857,"x_min":13,"x_max":844,"o":"m 844 818 l 844 1013 l 13 1013 l 13 818 l 315 818 l 315 0 l 542 0 l 542 818 l 844 818 z "},"Ŧ":{"ha":857,"x_min":13,"x_max":844,"o":"m 844 818 l 844 1013 l 13 1013 l 13 818 l 315 818 l 315 0 l 542 0 l 542 818 l 844 818 m 207 442 l 651 442 l 651 572 l 207 572 l 207 442 z "},"Ť":{"ha":857,"x_min":13,"x_max":844,"o":"m 844 818 l 844 1013 l 13 1013 l 13 818 l 315 818 l 315 0 l 542 0 l 542 818 l 844 818 z "},"Ţ":{"ha":857,"x_min":13,"x_max":844,"o":"m 844 818 l 844 1013 l 13 1013 l 13 818 l 315 818 l 315 0 l 542 0 l 542 818 l 844 818 z "},"Ț":{"ha":857,"x_min":13,"x_max":844,"o":"m 844 818 l 844 1013 l 13 1013 l 13 818 l 315 818 l 315 0 l 542 0 l 542 818 l 844 818 m 322 -436 l 372 -436 q 484 -397 442 -435 q 526 -271 526 -360 l 526 -79 l 331 -79 l 331 -232 l 429 -232 l 429 -254 q 412 -309 429 -289 q 351 -331 394 -329 l 322 -329 l 322 -436 z "},"U":{"ha":1088,"x_min":108,"x_max":979,"o":"m 543 -14 q 773 34 675 -14 q 925 172 871 82 q 979 389 979 263 l 979 1013 l 754 1013 l 754 403 q 697 242 754 297 q 544 186 640 186 q 388 244 443 186 q 333 403 333 301 l 333 1013 l 108 1013 l 108 389 q 156 178 108 269 q 299 37 203 88 q 543 -14 396 -14 z "},"Ú":{"ha":1088,"x_min":108,"x_max":979,"o":"m 543 -14 q 773 34 675 -14 q 925 172 871 82 q 979 389 979 263 l 979 1013 l 754 1013 l 754 403 q 697 242 754 297 q 544 186 640 186 q 388 244 443 186 q 333 403 333 301 l 333 1013 l 108 1013 l 108 389 q 156 178 108 269 q 299 37 203 88 q 543 -14 396 -14 z "},"Û":{"ha":1088,"x_min":108,"x_max":979,"o":"m 543 -14 q 773 34 675 -14 q 925 172 871 82 q 979 389 979 263 l 979 1013 l 754 1013 l 754 403 q 697 242 754 297 q 544 186 640 186 q 388 244 443 186 q 333 403 333 301 l 333 1013 l 108 1013 l 108 389 q 156 178 108 269 q 299 37 203 88 q 543 -14 396 -14 z "},"Ü":{"ha":1088,"x_min":108,"x_max":979,"o":"m 543 -14 q 773 34 675 -14 q 925 172 871 82 q 979 389 979 263 l 979 1013 l 754 1013 l 754 403 q 697 242 754 297 q 544 186 640 186 q 388 244 443 186 q 333 403 333 301 l 333 1013 l 108 1013 l 108 389 q 156 178 108 269 q 299 37 203 88 q 543 -14 396 -14 z "},"Ù":{"ha":1088,"x_min":108,"x_max":979,"o":"m 543 -14 q 773 34 675 -14 q 925 172 871 82 q 979 389 979 263 l 979 1013 l 754 1013 l 754 403 q 697 242 754 297 q 544 186 640 186 q 388 244 443 186 q 333 403 333 301 l 333 1013 l 108 1013 l 108 389 q 156 178 108 269 q 299 37 203 88 q 543 -14 396 -14 z "},"Ű":{"ha":1088,"x_min":108,"x_max":979,"o":"m 543 -14 q 773 34 675 -14 q 925 172 871 82 q 979 389 979 263 l 979 1013 l 754 1013 l 754 403 q 697 242 754 297 q 544 186 640 186 q 388 244 443 186 q 333 403 333 301 l 333 1013 l 108 1013 l 108 389 q 156 178 108 269 q 299 37 203 88 q 543 -14 396 -14 z "},"Ū":{"ha":1088,"x_min":108,"x_max":979,"o":"m 543 -14 q 773 34 675 -14 q 925 172 871 82 q 979 389 979 263 l 979 1013 l 754 1013 l 754 403 q 697 242 754 297 q 544 186 640 186 q 388 244 443 186 q 333 403 333 301 l 333 1013 l 108 1013 l 108 389 q 156 178 108 269 q 299 37 203 88 q 543 -14 396 -14 z "},"Ų":{"ha":1088,"x_min":108,"x_max":979,"o":"m 543 -14 q 773 34 675 -14 q 925 172 871 82 q 979 389 979 263 l 979 1013 l 754 1013 l 754 403 q 697 242 754 297 q 544 186 640 186 q 388 244 443 186 q 333 403 333 301 l 333 1013 l 108 1013 l 108 389 q 156 178 108 269 q 299 37 203 88 q 543 -14 396 -14 m 621 -262 l 739 -262 l 767 -128 l 679 -128 q 613 -107 628 -128 q 608 -43 597 -86 l 628 31 l 538 26 q 483 -54 507 -12 q 458 -140 458 -96 q 501 -231 458 -199 q 621 -262 543 -262 z "},"Ů":{"ha":1088,"x_min":108,"x_max":979,"o":"m 543 -14 q 773 34 675 -14 q 925 172 871 82 q 979 389 979 263 l 979 1013 l 754 1013 l 754 403 q 697 242 754 297 q 544 186 640 186 q 388 244 443 186 q 333 403 333 301 l 333 1013 l 108 1013 l 108 389 q 156 178 108 269 q 299 37 203 88 q 543 -14 396 -14 z "},"V":{"ha":1038,"x_min":18,"x_max":1019,"o":"m 367 0 l 672 0 l 1019 1013 l 768 1013 l 542 278 l 524 213 l 514 213 l 494 278 l 271 1013 l 18 1013 l 367 0 z "},"W":{"ha":1414,"x_min":35,"x_max":1379,"o":"m 240 0 l 550 0 l 689 628 l 706 710 l 714 710 l 731 628 l 869 0 l 1179 0 l 1379 1013 l 1144 1013 l 1031 307 l 1015 211 l 1004 211 l 835 1013 l 585 1013 l 414 211 l 404 211 l 388 322 l 271 1013 l 35 1013 l 240 0 z "},"Ẃ":{"ha":1414,"x_min":35,"x_max":1379,"o":"m 240 0 l 550 0 l 689 628 l 706 710 l 714 710 l 731 628 l 869 0 l 1179 0 l 1379 1013 l 1144 1013 l 1031 307 l 1015 211 l 1004 211 l 835 1013 l 585 1013 l 414 211 l 404 211 l 388 322 l 271 1013 l 35 1013 l 240 0 z "},"Ŵ":{"ha":1414,"x_min":35,"x_max":1379,"o":"m 240 0 l 550 0 l 689 628 l 706 710 l 714 710 l 731 628 l 869 0 l 1179 0 l 1379 1013 l 1144 1013 l 1031 307 l 1015 211 l 1004 211 l 835 1013 l 585 1013 l 414 211 l 404 211 l 388 322 l 271 1013 l 35 1013 l 240 0 z "},"Ẅ":{"ha":1414,"x_min":35,"x_max":1379,"o":"m 240 0 l 550 0 l 689 628 l 706 710 l 714 710 l 731 628 l 869 0 l 1179 0 l 1379 1013 l 1144 1013 l 1031 307 l 1015 211 l 1004 211 l 835 1013 l 585 1013 l 414 211 l 404 211 l 388 322 l 271 1013 l 35 1013 l 240 0 z "},"Ẁ":{"ha":1414,"x_min":35,"x_max":1379,"o":"m 240 0 l 550 0 l 689 628 l 706 710 l 714 710 l 731 628 l 869 0 l 1179 0 l 1379 1013 l 1144 1013 l 1031 307 l 1015 211 l 1004 211 l 835 1013 l 585 1013 l 414 211 l 404 211 l 388 322 l 271 1013 l 35 1013 l 240 0 z "},"X":{"ha":1071,"x_min":25,"x_max":1046,"o":"m 25 0 l 292 0 l 528 365 l 538 365 l 769 0 l 1046 0 l 699 531 l 1022 1013 l 754 1013 l 544 676 l 535 676 l 325 1013 l 49 1013 l 379 528 l 25 0 z "},"Y":{"ha":1013,"x_min":31,"x_max":979,"o":"m 393 0 l 619 0 l 619 393 l 979 1013 l 724 1013 l 543 674 l 511 613 l 501 613 l 469 674 l 288 1013 l 31 1013 l 393 393 l 393 0 z "},"Ý":{"ha":1013,"x_min":31,"x_max":979,"o":"m 393 0 l 619 0 l 619 393 l 979 1013 l 724 1013 l 543 674 l 511 613 l 501 613 l 469 674 l 288 1013 l 31 1013 l 393 393 l 393 0 z "},"Ŷ":{"ha":1013,"x_min":31,"x_max":979,"o":"m 393 0 l 619 0 l 619 393 l 979 1013 l 724 1013 l 543 674 l 511 613 l 501 613 l 469 674 l 288 1013 l 31 1013 l 393 393 l 393 0 z "},"Ÿ":{"ha":1013,"x_min":31,"x_max":979,"o":"m 393 0 l 619 0 l 619 393 l 979 1013 l 724 1013 l 543 674 l 511 613 l 501 613 l 469 674 l 288 1013 l 31 1013 l 393 393 l 393 0 z "},"Ỳ":{"ha":1013,"x_min":31,"x_max":979,"o":"m 393 0 l 619 0 l 619 393 l 979 1013 l 724 1013 l 543 674 l 511 613 l 501 613 l 469 674 l 288 1013 l 31 1013 l 393 393 l 393 0 z "},"Z":{"ha":954,"x_min":46,"x_max":906,"o":"m 46 0 l 906 0 l 906 193 l 350 193 l 894 838 l 894 1013 l 68 1013 l 68 818 l 586 818 l 46 176 l 46 0 z "},"Ź":{"ha":954,"x_min":46,"x_max":906,"o":"m 46 0 l 906 0 l 906 193 l 350 193 l 894 838 l 894 1013 l 68 1013 l 68 818 l 586 818 l 46 176 l 46 0 z "},"Ž":{"ha":954,"x_min":46,"x_max":906,"o":"m 46 0 l 906 0 l 906 193 l 350 193 l 894 838 l 894 1013 l 68 1013 l 68 818 l 586 818 l 46 176 l 46 0 z "},"Ż":{"ha":954,"x_min":46,"x_max":906,"o":"m 46 0 l 906 0 l 906 193 l 350 193 l 894 838 l 894 1013 l 68 1013 l 68 818 l 586 818 l 46 176 l 46 0 z "},"a":{"ha":874,"x_min":49,"x_max":775,"o":"m 333 -14 q 466 19 407 -14 q 553 110 525 51 l 563 110 l 563 0 l 775 0 l 775 746 l 574 746 l 563 636 l 553 636 q 467 727 525 694 q 335 760 408 760 q 126 672 203 760 q 49 388 49 583 l 49 356 q 117 87 49 188 q 333 -14 185 -14 m 419 160 q 314 199 351 160 q 276 308 276 238 l 276 436 q 314 547 276 507 q 419 586 351 586 q 524 546 485 586 q 563 433 563 506 l 563 311 q 524 199 563 239 q 419 160 485 160 z "},"á":{"ha":874,"x_min":49,"x_max":775,"o":"m 333 -14 q 466 19 407 -14 q 553 110 525 51 l 563 110 l 563 0 l 775 0 l 775 746 l 574 746 l 563 636 l 553 636 q 467 727 525 694 q 335 760 408 760 q 126 672 203 760 q 49 388 49 583 l 49 356 q 117 87 49 188 q 333 -14 185 -14 m 419 160 q 314 199 351 160 q 276 308 276 238 l 276 436 q 314 547 276 507 q 419 586 351 586 q 524 546 485 586 q 563 433 563 506 l 563 311 q 524 199 563 239 q 419 160 485 160 z "},"ă":{"ha":874,"x_min":49,"x_max":775,"o":"m 333 -14 q 466 19 407 -14 q 553 110 525 51 l 563 110 l 563 0 l 775 0 l 775 746 l 574 746 l 563 636 l 553 636 q 467 727 525 694 q 335 760 408 760 q 126 672 203 760 q 49 388 49 583 l 49 356 q 117 87 49 188 q 333 -14 185 -14 m 419 160 q 314 199 351 160 q 276 308 276 238 l 276 436 q 314 547 276 507 q 419 586 351 586 q 524 546 485 586 q 563 433 563 506 l 563 311 q 524 199 563 239 q 419 160 485 160 z "},"â":{"ha":874,"x_min":49,"x_max":775,"o":"m 333 -14 q 466 19 407 -14 q 553 110 525 51 l 563 110 l 563 0 l 775 0 l 775 746 l 574 746 l 563 636 l 553 636 q 467 727 525 694 q 335 760 408 760 q 126 672 203 760 q 49 388 49 583 l 49 356 q 117 87 49 188 q 333 -14 185 -14 m 419 160 q 314 199 351 160 q 276 308 276 238 l 276 436 q 314 547 276 507 q 419 586 351 586 q 524 546 485 586 q 563 433 563 506 l 563 311 q 524 199 563 239 q 419 160 485 160 z "},"ä":{"ha":874,"x_min":49,"x_max":775,"o":"m 333 -14 q 466 19 407 -14 q 553 110 525 51 l 563 110 l 563 0 l 775 0 l 775 746 l 574 746 l 563 636 l 553 636 q 467 727 525 694 q 335 760 408 760 q 126 672 203 760 q 49 388 49 583 l 49 356 q 117 87 49 188 q 333 -14 185 -14 m 419 160 q 314 199 351 160 q 276 308 276 238 l 276 436 q 314 547 276 507 q 419 586 351 586 q 524 546 485 586 q 563 433 563 506 l 563 311 q 524 199 563 239 q 419 160 485 160 z "},"à":{"ha":874,"x_min":49,"x_max":775,"o":"m 333 -14 q 466 19 407 -14 q 553 110 525 51 l 563 110 l 563 0 l 775 0 l 775 746 l 574 746 l 563 636 l 553 636 q 467 727 525 694 q 335 760 408 760 q 126 672 203 760 q 49 388 49 583 l 49 356 q 117 87 49 188 q 333 -14 185 -14 m 419 160 q 314 199 351 160 q 276 308 276 238 l 276 436 q 314 547 276 507 q 419 586 351 586 q 524 546 485 586 q 563 433 563 506 l 563 311 q 524 199 563 239 q 419 160 485 160 z "},"ā":{"ha":874,"x_min":49,"x_max":775,"o":"m 333 -14 q 466 19 407 -14 q 553 110 525 51 l 563 110 l 563 0 l 775 0 l 775 746 l 574 746 l 563 636 l 553 636 q 467 727 525 694 q 335 760 408 760 q 126 672 203 760 q 49 388 49 583 l 49 356 q 117 87 49 188 q 333 -14 185 -14 m 419 160 q 314 199 351 160 q 276 308 276 238 l 276 436 q 314 547 276 507 q 419 586 351 586 q 524 546 485 586 q 563 433 563 506 l 563 311 q 524 199 563 239 q 419 160 485 160 z "},"ą":{"ha":874,"x_min":49,"x_max":807,"o":"m 333 -14 q 466 19 407 -14 q 553 110 525 51 l 563 110 l 563 0 l 775 0 l 775 746 l 574 746 l 563 636 l 553 636 q 467 727 525 694 q 335 760 408 760 q 126 672 203 760 q 49 388 49 583 l 49 356 q 117 87 49 188 q 333 -14 185 -14 m 419 160 q 314 199 351 160 q 276 308 276 238 l 276 436 q 314 547 276 507 q 419 586 351 586 q 524 546 485 586 q 563 433 563 506 l 563 311 q 524 199 563 239 q 419 160 485 160 m 661 -262 l 779 -262 l 807 -128 l 719 -128 q 653 -107 668 -128 q 649 -43 638 -86 l 668 31 l 578 26 q 523 -54 547 -12 q 499 -140 499 -96 q 541 -231 499 -199 q 661 -262 583 -262 z "},"å":{"ha":874,"x_min":49,"x_max":775,"o":"m 333 -14 q 466 19 407 -14 q 553 110 525 51 l 563 110 l 563 0 l 775 0 l 775 746 l 574 746 l 563 636 l 553 636 q 467 727 525 694 q 335 760 408 760 q 126 672 203 760 q 49 388 49 583 l 49 356 q 117 87 49 188 q 333 -14 185 -14 m 419 160 q 314 199 351 160 q 276 308 276 238 l 276 436 q 314 547 276 507 q 419 586 351 586 q 524 546 485 586 q 563 433 563 506 l 563 311 q 524 199 563 239 q 419 160 485 160 z "},"ã":{"ha":874,"x_min":49,"x_max":775,"o":"m 333 -14 q 466 19 407 -14 q 553 110 525 51 l 563 110 l 563 0 l 775 0 l 775 746 l 574 746 l 563 636 l 553 636 q 467 727 525 694 q 335 760 408 760 q 126 672 203 760 q 49 388 49 583 l 49 356 q 117 87 49 188 q 333 -14 185 -14 m 419 160 q 314 199 351 160 q 276 308 276 238 l 276 436 q 314 547 276 507 q 419 586 351 586 q 524 546 485 586 q 563 433 563 506 l 563 311 q 524 199 563 239 q 419 160 485 160 z "},"æ":{"ha":1274,"x_min":49,"x_max":1225,"o":"m 289 -14 q 453 22 383 -14 q 554 129 524 58 l 574 129 q 694 24 617 61 q 885 -14 771 -14 q 1053 18 979 -14 q 1170 107 1126 50 q 1218 240 1214 164 l 1017 240 q 974 174 1010 199 q 879 149 938 149 q 774 184 815 149 q 733 281 733 219 l 733 319 l 1225 319 l 1225 414 q 1135 669 1225 578 q 875 760 1044 760 q 749 740 807 760 q 647 679 690 719 q 551 739 610 718 q 413 760 493 760 q 169 694 263 760 q 71 499 75 629 l 261 499 q 298 567 264 542 q 394 592 332 592 q 487 565 453 592 q 521 476 521 539 l 521 447 l 339 429 q 123 363 197 417 q 49 194 49 310 l 49 189 q 114 41 49 96 q 289 -14 179 -14 m 733 458 q 771 565 733 528 q 875 601 808 601 q 977 567 938 601 q 1017 458 1017 533 l 1017 450 l 733 450 l 733 458 m 378 139 q 292 159 322 139 q 263 217 263 179 l 263 236 q 374 321 263 311 l 521 335 l 521 214 q 467 160 507 181 q 378 139 428 139 z "},"b":{"ha":874,"x_min":97,"x_max":826,"o":"m 540 -14 q 749 75 672 -14 q 826 358 826 164 l 826 389 q 758 659 826 558 q 540 760 690 760 q 408 727 468 760 q 321 636 349 694 l 311 636 l 311 1013 l 97 1013 l 97 0 l 300 0 l 311 110 l 321 110 q 408 19 349 51 q 540 -14 467 -14 m 454 160 q 351 200 389 160 q 313 313 313 240 l 313 435 q 351 546 313 506 q 454 586 389 586 q 561 547 524 586 q 599 438 599 508 l 599 308 q 561 199 599 239 q 454 160 524 160 z "},"c":{"ha":796,"x_min":49,"x_max":753,"o":"m 407 -14 q 586 22 508 -14 q 708 124 664 58 q 753 276 751 189 l 543 276 q 505 192 539 225 q 407 158 471 158 q 301 197 339 158 q 264 304 264 236 l 264 438 q 302 546 264 506 q 408 586 340 586 q 501 557 465 586 q 543 469 538 528 l 751 469 q 656 681 746 601 q 408 760 565 760 q 147 664 244 760 q 49 372 49 568 l 49 368 q 137 90 49 194 q 407 -14 225 -14 z "},"ć":{"ha":796,"x_min":49,"x_max":753,"o":"m 407 -14 q 586 22 508 -14 q 708 124 664 58 q 753 276 751 189 l 543 276 q 505 192 539 225 q 407 158 471 158 q 301 197 339 158 q 264 304 264 236 l 264 438 q 302 546 264 506 q 408 586 340 586 q 501 557 465 586 q 543 469 538 528 l 751 469 q 656 681 746 601 q 408 760 565 760 q 147 664 244 760 q 49 372 49 568 l 49 368 q 137 90 49 194 q 407 -14 225 -14 z "},"č":{"ha":796,"x_min":49,"x_max":753,"o":"m 407 -14 q 586 22 508 -14 q 708 124 664 58 q 753 276 751 189 l 543 276 q 505 192 539 225 q 407 158 471 158 q 301 197 339 158 q 264 304 264 236 l 264 438 q 302 546 264 506 q 408 586 340 586 q 501 557 465 586 q 543 469 538 528 l 751 469 q 656 681 746 601 q 408 760 565 760 q 147 664 244 760 q 49 372 49 568 l 49 368 q 137 90 49 194 q 407 -14 225 -14 z "},"ç":{"ha":796,"x_min":49,"x_max":753,"o":"m 407 -14 q 586 22 508 -14 q 708 124 664 58 q 753 276 751 189 l 543 276 q 505 192 539 225 q 407 158 471 158 q 301 197 339 158 q 264 304 264 236 l 264 438 q 302 546 264 506 q 408 586 340 586 q 501 557 465 586 q 543 469 538 528 l 751 469 q 656 681 746 601 q 408 760 565 760 q 147 664 244 760 q 49 372 49 568 l 49 368 q 137 90 49 194 q 407 -14 225 -14 z "},"ċ":{"ha":796,"x_min":49,"x_max":753,"o":"m 407 -14 q 586 22 508 -14 q 708 124 664 58 q 753 276 751 189 l 543 276 q 505 192 539 225 q 407 158 471 158 q 301 197 339 158 q 264 304 264 236 l 264 438 q 302 546 264 506 q 408 586 340 586 q 501 557 465 586 q 543 469 538 528 l 751 469 q 656 681 746 601 q 408 760 565 760 q 147 664 244 760 q 49 372 49 568 l 49 368 q 137 90 49 194 q 407 -14 225 -14 z "},"d":{"ha":874,"x_min":49,"x_max":776,"o":"m 335 -14 q 467 19 408 -14 q 553 110 525 51 l 563 110 l 574 0 l 776 0 l 776 1013 l 563 1013 l 563 636 l 553 636 q 466 727 525 694 q 333 760 407 760 q 126 672 203 760 q 49 389 49 583 l 49 358 q 117 88 49 189 q 335 -14 185 -14 m 419 160 q 314 199 351 160 q 276 308 276 239 l 276 438 q 314 547 276 508 q 419 586 351 586 q 524 546 485 586 q 563 435 563 506 l 563 313 q 524 200 563 240 q 419 160 485 160 z "},"ď":{"ha":874,"x_min":49,"x_max":1085,"o":"m 335 -14 q 467 19 408 -14 q 553 110 525 51 l 563 110 l 574 0 l 776 0 l 776 1013 l 563 1013 l 563 636 l 553 636 q 466 727 525 694 q 333 760 407 760 q 126 672 203 760 q 49 389 49 583 l 49 358 q 117 88 49 189 q 335 -14 185 -14 m 419 160 q 314 199 351 160 q 276 308 276 239 l 276 438 q 314 547 276 508 q 419 586 351 586 q 524 546 485 586 q 563 435 563 506 l 563 313 q 524 200 563 240 q 419 160 485 160 m 861 583 l 915 585 q 1039 625 993 586 q 1085 764 1085 664 l 1085 1013 l 882 1013 l 882 819 l 974 819 l 974 772 q 955 713 974 735 q 889 690 936 692 l 861 690 l 861 583 z "},"đ":{"ha":874,"x_min":49,"x_max":853,"o":"m 335 -14 q 467 19 408 -14 q 553 110 525 51 l 563 110 l 574 0 l 776 0 l 776 1013 l 563 1013 l 563 636 l 553 636 q 466 727 525 694 q 333 760 407 760 q 126 672 203 760 q 49 389 49 583 l 49 358 q 117 88 49 189 q 335 -14 185 -14 m 419 160 q 314 199 351 160 q 276 308 276 239 l 276 438 q 314 547 276 508 q 419 586 351 586 q 524 546 485 586 q 563 435 563 506 l 563 313 q 524 200 563 240 q 419 160 485 160 m 408 811 l 853 811 l 853 942 l 408 942 l 408 811 z "},"e":{"ha":806,"x_min":49,"x_max":758,"o":"m 418 -14 q 586 18 513 -14 q 703 107 660 50 q 750 240 746 164 l 549 240 q 505 174 542 199 q 411 149 468 149 q 306 185 347 149 q 265 281 265 221 l 265 319 l 758 319 l 758 414 q 717 596 758 518 q 595 717 675 674 q 401 760 515 760 q 217 716 297 760 q 93 588 138 672 q 49 383 49 504 l 49 371 q 89 169 49 256 q 212 34 129 82 q 418 -14 294 -14 m 265 458 q 303 565 265 528 q 408 601 342 601 q 510 567 471 601 q 549 458 549 533 l 549 451 l 265 451 l 265 458 z "},"é":{"ha":806,"x_min":49,"x_max":758,"o":"m 418 -14 q 586 18 513 -14 q 703 107 660 50 q 750 240 746 164 l 549 240 q 505 174 542 199 q 411 149 468 149 q 306 185 347 149 q 265 281 265 221 l 265 319 l 758 319 l 758 414 q 717 596 758 518 q 595 717 675 674 q 401 760 515 760 q 217 716 297 760 q 93 588 138 672 q 49 383 49 504 l 49 371 q 89 169 49 256 q 212 34 129 82 q 418 -14 294 -14 m 265 458 q 303 565 265 528 q 408 601 342 601 q 510 567 471 601 q 549 458 549 533 l 549 451 l 265 451 l 265 458 z "},"ě":{"ha":806,"x_min":49,"x_max":758,"o":"m 418 -14 q 586 18 513 -14 q 703 107 660 50 q 750 240 746 164 l 549 240 q 505 174 542 199 q 411 149 468 149 q 306 185 347 149 q 265 281 265 221 l 265 319 l 758 319 l 758 414 q 717 596 758 518 q 595 717 675 674 q 401 760 515 760 q 217 716 297 760 q 93 588 138 672 q 49 383 49 504 l 49 371 q 89 169 49 256 q 212 34 129 82 q 418 -14 294 -14 m 265 458 q 303 565 265 528 q 408 601 342 601 q 510 567 471 601 q 549 458 549 533 l 549 451 l 265 451 l 265 458 z "},"ê":{"ha":806,"x_min":49,"x_max":758,"o":"m 418 -14 q 586 18 513 -14 q 703 107 660 50 q 750 240 746 164 l 549 240 q 505 174 542 199 q 411 149 468 149 q 306 185 347 149 q 265 281 265 221 l 265 319 l 758 319 l 758 414 q 717 596 758 518 q 595 717 675 674 q 401 760 515 760 q 217 716 297 760 q 93 588 138 672 q 49 383 49 504 l 49 371 q 89 169 49 256 q 212 34 129 82 q 418 -14 294 -14 m 265 458 q 303 565 265 528 q 408 601 342 601 q 510 567 471 601 q 549 458 549 533 l 549 451 l 265 451 l 265 458 z "},"ë":{"ha":806,"x_min":49,"x_max":758,"o":"m 418 -14 q 586 18 513 -14 q 703 107 660 50 q 750 240 746 164 l 549 240 q 505 174 542 199 q 411 149 468 149 q 306 185 347 149 q 265 281 265 221 l 265 319 l 758 319 l 758 414 q 717 596 758 518 q 595 717 675 674 q 401 760 515 760 q 217 716 297 760 q 93 588 138 672 q 49 383 49 504 l 49 371 q 89 169 49 256 q 212 34 129 82 q 418 -14 294 -14 m 265 458 q 303 565 265 528 q 408 601 342 601 q 510 567 471 601 q 549 458 549 533 l 549 451 l 265 451 l 265 458 z "},"ė":{"ha":806,"x_min":49,"x_max":758,"o":"m 418 -14 q 586 18 513 -14 q 703 107 660 50 q 750 240 746 164 l 549 240 q 505 174 542 199 q 411 149 468 149 q 306 185 347 149 q 265 281 265 221 l 265 319 l 758 319 l 758 414 q 717 596 758 518 q 595 717 675 674 q 401 760 515 760 q 217 716 297 760 q 93 588 138 672 q 49 383 49 504 l 49 371 q 89 169 49 256 q 212 34 129 82 q 418 -14 294 -14 m 265 458 q 303 565 265 528 q 408 601 342 601 q 510 567 471 601 q 549 458 549 533 l 549 451 l 265 451 l 265 458 z "},"è":{"ha":806,"x_min":49,"x_max":758,"o":"m 418 -14 q 586 18 513 -14 q 703 107 660 50 q 750 240 746 164 l 549 240 q 505 174 542 199 q 411 149 468 149 q 306 185 347 149 q 265 281 265 221 l 265 319 l 758 319 l 758 414 q 717 596 758 518 q 595 717 675 674 q 401 760 515 760 q 217 716 297 760 q 93 588 138 672 q 49 383 49 504 l 49 371 q 89 169 49 256 q 212 34 129 82 q 418 -14 294 -14 m 265 458 q 303 565 265 528 q 408 601 342 601 q 510 567 471 601 q 549 458 549 533 l 549 451 l 265 451 l 265 458 z "},"ē":{"ha":806,"x_min":49,"x_max":758,"o":"m 418 -14 q 586 18 513 -14 q 703 107 660 50 q 750 240 746 164 l 549 240 q 505 174 542 199 q 411 149 468 149 q 306 185 347 149 q 265 281 265 221 l 265 319 l 758 319 l 758 414 q 717 596 758 518 q 595 717 675 674 q 401 760 515 760 q 217 716 297 760 q 93 588 138 672 q 49 383 49 504 l 49 371 q 89 169 49 256 q 212 34 129 82 q 418 -14 294 -14 m 265 458 q 303 565 265 528 q 408 601 342 601 q 510 567 471 601 q 549 458 549 533 l 549 451 l 265 451 l 265 458 z "},"ę":{"ha":806,"x_min":49,"x_max":758,"o":"m 418 -14 q 586 18 513 -14 q 703 107 660 50 q 750 240 746 164 l 549 240 q 505 174 542 199 q 411 149 468 149 q 306 185 347 149 q 265 281 265 221 l 265 319 l 758 319 l 758 414 q 717 596 758 518 q 595 717 675 674 q 401 760 515 760 q 217 716 297 760 q 93 588 138 672 q 49 383 49 504 l 49 371 q 89 169 49 256 q 212 34 129 82 q 418 -14 294 -14 m 265 458 q 303 565 265 528 q 408 601 342 601 q 510 567 471 601 q 549 458 549 533 l 549 451 l 265 451 l 265 458 m 490 -262 l 608 -262 l 636 -128 l 549 -128 q 482 -107 497 -128 q 478 -43 467 -86 l 497 31 l 407 26 q 352 -54 376 -12 q 328 -140 328 -96 q 370 -231 328 -199 q 490 -262 413 -262 z "},"f":{"ha":619,"x_min":24,"x_max":567,"o":"m 567 574 l 567 746 l 383 746 l 383 872 l 567 872 l 567 1013 l 336 1013 q 215 975 261 1013 q 169 867 169 938 l 169 746 l 24 746 l 24 574 l 169 574 l 169 0 l 383 0 l 383 574 l 567 574 z "},"g":{"ha":869,"x_min":49,"x_max":776,"o":"m 392 -246 q 678 -169 581 -246 q 776 71 776 -93 l 776 746 l 575 746 l 564 640 l 553 640 q 474 726 526 693 q 333 760 421 760 q 124 670 199 760 q 49 404 49 581 l 49 399 q 119 143 49 239 q 332 47 189 47 q 465 80 406 47 q 553 175 525 113 l 563 175 l 563 46 q 527 -60 563 -22 q 408 -97 492 -97 q 319 -77 354 -97 q 276 -21 283 -57 l 71 -21 q 162 -184 78 -122 q 392 -246 246 -246 m 419 217 q 317 254 356 217 q 278 358 278 292 l 278 444 q 315 551 278 513 q 419 590 351 590 q 524 551 485 590 q 563 442 563 511 l 563 364 q 525 258 563 299 q 419 217 488 217 z "},"ğ":{"ha":869,"x_min":49,"x_max":776,"o":"m 392 -246 q 678 -169 581 -246 q 776 71 776 -93 l 776 746 l 575 746 l 564 640 l 553 640 q 474 726 526 693 q 333 760 421 760 q 124 670 199 760 q 49 404 49 581 l 49 399 q 119 143 49 239 q 332 47 189 47 q 465 80 406 47 q 553 175 525 113 l 563 175 l 563 46 q 527 -60 563 -22 q 408 -97 492 -97 q 319 -77 354 -97 q 276 -21 283 -57 l 71 -21 q 162 -184 78 -122 q 392 -246 246 -246 m 419 217 q 317 254 356 217 q 278 358 278 292 l 278 444 q 315 551 278 513 q 419 590 351 590 q 524 551 485 590 q 563 442 563 511 l 563 364 q 525 258 563 299 q 419 217 488 217 z "},"ģ":{"ha":869,"x_min":49,"x_max":776,"o":"m 392 -246 q 678 -169 581 -246 q 776 71 776 -93 l 776 746 l 575 746 l 564 640 l 553 640 q 474 726 526 693 q 333 760 421 760 q 124 670 199 760 q 49 404 49 581 l 49 399 q 119 143 49 239 q 332 47 189 47 q 465 80 406 47 q 553 175 525 113 l 563 175 l 563 46 q 527 -60 563 -22 q 408 -97 492 -97 q 319 -77 354 -97 q 276 -21 283 -57 l 71 -21 q 162 -184 78 -122 q 392 -246 246 -246 m 419 217 q 317 254 356 217 q 278 358 278 292 l 278 444 q 315 551 278 513 q 419 590 351 590 q 524 551 485 590 q 563 442 563 511 l 563 364 q 525 258 563 299 q 419 217 488 217 m 346 838 l 518 838 l 518 1004 l 443 1004 l 443 1024 q 460 1075 443 1057 q 519 1093 478 1093 l 544 1093 l 544 1185 l 504 1185 q 388 1145 429 1185 q 346 1032 346 1106 l 346 838 z "},"ġ":{"ha":869,"x_min":49,"x_max":776,"o":"m 392 -246 q 678 -169 581 -246 q 776 71 776 -93 l 776 746 l 575 746 l 564 640 l 553 640 q 474 726 526 693 q 333 760 421 760 q 124 670 199 760 q 49 404 49 581 l 49 399 q 119 143 49 239 q 332 47 189 47 q 465 80 406 47 q 553 175 525 113 l 563 175 l 563 46 q 527 -60 563 -22 q 408 -97 492 -97 q 319 -77 354 -97 q 276 -21 283 -57 l 71 -21 q 162 -184 78 -122 q 392 -246 246 -246 m 419 217 q 317 254 356 217 q 278 358 278 292 l 278 444 q 315 551 278 513 q 419 590 351 590 q 524 551 485 590 q 563 442 563 511 l 563 364 q 525 258 563 299 q 419 217 488 217 z "},"h":{"ha":893,"x_min":97,"x_max":803,"o":"m 97 0 l 311 0 l 311 414 q 348 540 311 493 q 457 588 385 588 q 554 554 518 588 q 590 431 590 521 l 590 0 l 803 0 l 803 457 q 733 688 803 615 q 544 760 664 760 q 406 722 464 760 q 324 624 347 685 l 311 624 l 311 1013 l 97 1013 l 97 0 z "},"ħ":{"ha":893,"x_min":11,"x_max":803,"o":"m 97 0 l 311 0 l 311 414 q 348 540 311 493 q 457 588 385 588 q 554 554 518 588 q 590 431 590 521 l 590 0 l 803 0 l 803 457 q 733 688 803 615 q 544 760 664 760 q 406 722 464 760 q 324 624 347 685 l 311 624 l 311 1013 l 97 1013 l 97 0 m 11 811 l 456 811 l 456 942 l 11 942 l 11 811 z "},"i":{"ha":408,"x_min":97,"x_max":311,"o":"z "},"ı":{"ha":408,"x_min":97,"x_max":311,"o":"m 97 0 l 311 0 l 311 746 l 97 746 l 97 0 z "},"í":{"ha":408,"x_min":97,"x_max":414,"o":"m 97 0 l 311 0 l 311 746 l 97 746 l 97 0 z "},"î":{"ha":408,"x_min":-54,"x_max":465,"o":"m 97 0 l 311 0 l 311 746 l 97 746 l 97 0 z "},"ï":{"ha":408,"x_min":-58,"x_max":468,"o":"m 97 0 l 311 0 l 311 746 l 97 746 l 97 0 z "},"ì":{"ha":408,"x_min":-4,"x_max":311,"o":"m 97 0 l 311 0 l 311 746 l 97 746 l 97 0 z "},"ī":{"ha":408,"x_min":-43,"x_max":451,"o":"m 97 0 l 311 0 l 311 746 l 97 746 l 97 0 z "},"į":{"ha":408,"x_min":92,"x_max":400,"o":"m 97 0 l 311 0 l 311 746 l 97 746 l 97 0 m 254 -262 l 372 -262 l 400 -128 l 313 -128 q 246 -107 261 -128 q 242 -43 231 -86 l 261 31 l 171 26 q 116 -54 140 -12 q 92 -140 92 -96 q 134 -231 92 -199 q 254 -262 176 -262 z "},"j":{"ha":408,"x_min":-44,"x_max":310,"o":"m 97 840 l 310 840 l 310 1013 l 97 1013 l 97 840 m -44 -232 l 144 -232 q 264 -190 218 -232 q 310 -67 310 -147 l 310 746 l 97 746 l 97 -75 l -44 -75 l -44 -232 z "},"ȷ":{"ha":408,"x_min":-44,"x_max":310,"o":"m -44 -232 l 125 -232 q 259 -187 208 -232 q 310 -46 310 -142 l 310 746 l 97 746 l 97 -65 l -44 -65 l -44 -232 z "},"k":{"ha":900,"x_min":97,"x_max":865,"o":"m 97 0 l 311 0 l 311 211 l 418 315 l 621 0 l 865 0 l 569 457 l 853 746 l 596 746 l 311 439 l 311 1013 l 97 1013 l 97 0 z "},"ķ":{"ha":900,"x_min":97,"x_max":865,"o":"m 97 0 l 311 0 l 311 211 l 418 315 l 621 0 l 865 0 l 569 457 l 853 746 l 596 746 l 311 439 l 311 1013 l 97 1013 l 97 0 m 344 -436 l 394 -436 q 506 -397 464 -435 q 549 -271 549 -360 l 549 -79 l 353 -79 l 353 -232 l 451 -232 l 451 -254 q 434 -309 451 -289 q 374 -331 417 -329 l 344 -329 l 344 -436 z "},"l":{"ha":408,"x_min":97,"x_max":311,"o":"m 97 0 l 311 0 l 311 1013 l 97 1013 l 97 0 z "},"ĺ":{"ha":408,"x_min":97,"x_max":414,"o":"m 97 0 l 311 0 l 311 1013 l 97 1013 l 97 0 z "},"ľ":{"ha":408,"x_min":97,"x_max":621,"o":"m 97 0 l 311 0 l 311 1013 l 97 1013 l 97 0 m 397 586 l 451 588 q 575 628 529 589 q 621 767 621 667 l 621 1015 l 418 1015 l 418 822 l 510 822 l 510 775 q 491 716 510 738 q 425 693 472 694 l 397 693 l 397 586 z "},"ļ":{"ha":408,"x_min":97,"x_max":311,"o":"m 97 0 l 311 0 l 311 1013 l 97 1013 l 97 0 m 99 -436 l 149 -436 q 260 -397 218 -435 q 303 -271 303 -360 l 303 -79 l 107 -79 l 107 -232 l 206 -232 l 206 -254 q 188 -309 206 -289 q 128 -331 171 -329 l 99 -329 l 99 -436 z "},"ł":{"ha":408,"x_min":3,"x_max":406,"o":"m 97 0 l 311 0 l 311 461 l 406 488 l 406 646 l 311 621 l 311 1013 l 97 1013 l 97 563 l 3 538 l 3 378 l 97 404 l 97 0 z "},"m":{"ha":1357,"x_min":97,"x_max":1267,"o":"m 97 0 l 311 0 l 311 418 q 346 540 311 494 q 449 585 381 585 q 542 551 510 585 q 575 433 575 517 l 575 0 l 789 0 l 789 418 q 824 540 789 494 q 928 585 860 585 q 1019 551 986 585 q 1053 433 1053 517 l 1053 0 l 1267 0 l 1267 472 q 1198 690 1267 621 q 1013 758 1129 758 q 865 718 928 758 q 779 604 803 678 l 769 604 q 689 717 749 675 q 540 758 629 758 q 406 724 464 758 q 324 628 347 689 l 311 628 l 297 746 l 97 746 l 97 0 z "},"n":{"ha":893,"x_min":97,"x_max":803,"o":"m 97 0 l 311 0 l 311 414 q 348 539 311 492 q 457 586 385 586 q 554 553 518 586 q 590 429 590 519 l 590 0 l 803 0 l 803 457 q 733 687 803 614 q 544 760 664 760 q 406 722 464 760 q 324 624 347 685 l 311 624 l 296 746 l 97 746 l 97 0 z "},"ń":{"ha":893,"x_min":97,"x_max":803,"o":"m 97 0 l 311 0 l 311 414 q 348 539 311 492 q 457 586 385 586 q 554 553 518 586 q 590 429 590 519 l 590 0 l 803 0 l 803 457 q 733 687 803 614 q 544 760 664 760 q 406 722 464 760 q 324 624 347 685 l 311 624 l 296 746 l 97 746 l 97 0 z "},"ň":{"ha":893,"x_min":97,"x_max":803,"o":"m 97 0 l 311 0 l 311 414 q 348 539 311 492 q 457 586 385 586 q 554 553 518 586 q 590 429 590 519 l 590 0 l 803 0 l 803 457 q 733 687 803 614 q 544 760 664 760 q 406 722 464 760 q 324 624 347 685 l 311 624 l 296 746 l 97 746 l 97 0 z "},"ņ":{"ha":893,"x_min":97,"x_max":803,"o":"m 97 0 l 311 0 l 311 414 q 348 539 311 492 q 457 586 385 586 q 554 553 518 586 q 590 429 590 519 l 590 0 l 803 0 l 803 457 q 733 687 803 614 q 544 760 664 760 q 406 722 464 760 q 324 624 347 685 l 311 624 l 296 746 l 97 746 l 97 0 m 343 -436 l 393 -436 q 505 -397 463 -435 q 547 -271 547 -360 l 547 -79 l 351 -79 l 351 -232 l 450 -232 l 450 -254 q 433 -309 450 -289 q 372 -331 415 -329 l 343 -329 l 343 -436 z "},"ŋ":{"ha":893,"x_min":97,"x_max":803,"o":"m 447 -232 l 617 -232 q 752 -187 701 -232 q 803 -46 803 -142 l 803 457 q 741 677 803 594 q 554 760 679 760 q 410 722 471 760 q 324 624 349 685 l 311 624 l 296 746 l 97 746 l 97 0 l 311 0 l 311 414 q 348 539 311 492 q 457 586 385 586 q 554 553 518 586 q 590 429 590 519 l 590 -65 l 447 -65 l 447 -232 z "},"ñ":{"ha":893,"x_min":97,"x_max":803,"o":"m 97 0 l 311 0 l 311 414 q 348 539 311 492 q 457 586 385 586 q 554 553 518 586 q 590 429 590 519 l 590 0 l 803 0 l 803 457 q 733 687 803 614 q 544 760 664 760 q 406 722 464 760 q 324 624 347 685 l 311 624 l 296 746 l 97 746 l 97 0 z "},"o":{"ha":818,"x_min":49,"x_max":771,"o":"m 408 -14 q 681 90 592 -14 q 771 368 769 194 l 771 372 q 672 665 771 569 q 408 760 572 760 q 147 665 246 760 q 49 372 49 569 l 49 368 q 138 90 49 194 q 408 -14 226 -14 m 408 158 q 302 197 339 158 q 265 304 265 236 l 265 438 q 303 547 265 507 q 408 586 342 586 q 515 547 476 586 q 553 438 553 507 l 553 304 q 516 197 553 236 q 408 158 479 158 z "},"ó":{"ha":818,"x_min":49,"x_max":771,"o":"m 408 -14 q 681 90 592 -14 q 771 368 769 194 l 771 372 q 672 665 771 569 q 408 760 572 760 q 147 665 246 760 q 49 372 49 569 l 49 368 q 138 90 49 194 q 408 -14 226 -14 m 408 158 q 302 197 339 158 q 265 304 265 236 l 265 438 q 303 547 265 507 q 408 586 342 586 q 515 547 476 586 q 553 438 553 507 l 553 304 q 516 197 553 236 q 408 158 479 158 z "},"ô":{"ha":818,"x_min":49,"x_max":771,"o":"m 408 -14 q 681 90 592 -14 q 771 368 769 194 l 771 372 q 672 665 771 569 q 408 760 572 760 q 147 665 246 760 q 49 372 49 569 l 49 368 q 138 90 49 194 q 408 -14 226 -14 m 408 158 q 302 197 339 158 q 265 304 265 236 l 265 438 q 303 547 265 507 q 408 586 342 586 q 515 547 476 586 q 553 438 553 507 l 553 304 q 516 197 553 236 q 408 158 479 158 z "},"ö":{"ha":818,"x_min":49,"x_max":771,"o":"m 408 -14 q 681 90 592 -14 q 771 368 769 194 l 771 372 q 672 665 771 569 q 408 760 572 760 q 147 665 246 760 q 49 372 49 569 l 49 368 q 138 90 49 194 q 408 -14 226 -14 m 408 158 q 302 197 339 158 q 265 304 265 236 l 265 438 q 303 547 265 507 q 408 586 342 586 q 515 547 476 586 q 553 438 553 507 l 553 304 q 516 197 553 236 q 408 158 479 158 z "},"ò":{"ha":818,"x_min":49,"x_max":771,"o":"m 408 -14 q 681 90 592 -14 q 771 368 769 194 l 771 372 q 672 665 771 569 q 408 760 572 760 q 147 665 246 760 q 49 372 49 569 l 49 368 q 138 90 49 194 q 408 -14 226 -14 m 408 158 q 302 197 339 158 q 265 304 265 236 l 265 438 q 303 547 265 507 q 408 586 342 586 q 515 547 476 586 q 553 438 553 507 l 553 304 q 516 197 553 236 q 408 158 479 158 z "},"ő":{"ha":818,"x_min":49,"x_max":797,"o":"m 408 -14 q 681 90 592 -14 q 771 368 769 194 l 771 372 q 672 665 771 569 q 408 760 572 760 q 147 665 246 760 q 49 372 49 569 l 49 368 q 138 90 49 194 q 408 -14 226 -14 m 408 158 q 302 197 339 158 q 265 304 265 236 l 265 438 q 303 547 265 507 q 408 586 342 586 q 515 547 476 586 q 553 438 553 507 l 553 304 q 516 197 553 236 q 408 158 479 158 z "},"ō":{"ha":818,"x_min":49,"x_max":771,"o":"m 408 -14 q 681 90 592 -14 q 771 368 769 194 l 771 372 q 672 665 771 569 q 408 760 572 760 q 147 665 246 760 q 49 372 49 569 l 49 368 q 138 90 49 194 q 408 -14 226 -14 m 408 158 q 302 197 339 158 q 265 304 265 236 l 265 438 q 303 547 265 507 q 408 586 342 586 q 515 547 476 586 q 553 438 553 507 l 553 304 q 516 197 553 236 q 408 158 479 158 z "},"ø":{"ha":818,"x_min":49,"x_max":771,"o":"m 408 -14 q 681 90 592 -14 q 771 368 769 194 l 771 372 q 672 665 771 569 q 408 760 572 760 q 147 665 246 760 q 49 372 49 569 l 49 368 q 138 90 49 194 q 408 -14 226 -14 m 408 158 q 302 197 339 158 q 265 304 265 236 l 265 438 q 303 547 265 507 q 408 586 342 586 q 515 547 476 586 q 553 438 553 507 l 553 304 q 516 197 553 236 q 408 158 479 158 m 54 -36 l 171 -36 l 761 783 l 643 783 l 54 -36 z "},"õ":{"ha":818,"x_min":49,"x_max":771,"o":"m 408 -14 q 681 90 592 -14 q 771 368 769 194 l 771 372 q 672 665 771 569 q 408 760 572 760 q 147 665 246 760 q 49 372 49 569 l 49 368 q 138 90 49 194 q 408 -14 226 -14 m 408 158 q 302 197 339 158 q 265 304 265 236 l 265 438 q 303 547 265 507 q 408 586 342 586 q 515 547 476 586 q 553 438 553 507 l 553 304 q 516 197 553 236 q 408 158 479 158 z "},"œ":{"ha":1313,"x_min":49,"x_max":1265,"o":"m 408 -14 q 681 90 592 -14 q 771 368 769 194 l 771 372 q 672 665 771 569 q 408 760 572 760 q 147 665 246 760 q 49 372 49 569 l 49 368 q 138 90 49 194 q 408 -14 226 -14 m 408 158 q 302 197 339 158 q 265 304 265 236 l 265 438 q 303 547 265 507 q 408 586 342 586 q 515 547 476 586 q 553 438 553 507 l 553 304 q 516 197 553 236 q 408 158 479 158 m 925 -14 q 1093 18 1019 -14 q 1210 107 1167 50 q 1257 240 1253 164 l 1056 240 q 1012 174 1049 199 q 918 149 975 149 q 813 185 854 149 q 772 281 772 221 l 772 319 l 1265 319 l 1265 414 q 1224 596 1265 518 q 1102 717 1182 674 q 908 760 1022 760 q 724 716 804 760 q 600 588 644 672 q 556 383 556 504 l 556 371 q 596 169 556 256 q 719 34 636 82 q 925 -14 801 -14 m 772 458 q 810 565 772 528 q 915 601 849 601 q 1017 567 978 601 q 1056 458 1056 533 l 1056 451 l 772 451 l 772 458 z "},"p":{"ha":874,"x_min":97,"x_max":826,"o":"m 97 -232 l 311 -232 l 311 110 l 321 110 q 408 19 349 51 q 540 -14 468 -14 q 749 74 672 -14 q 826 356 826 163 l 826 388 q 758 658 826 557 q 540 760 690 760 q 408 727 467 760 q 321 636 349 694 l 311 636 l 300 746 l 97 746 l 97 -232 m 454 160 q 351 199 389 160 q 313 311 313 239 l 313 433 q 351 546 313 506 q 454 586 389 586 q 561 547 524 586 q 599 436 599 507 l 599 308 q 561 199 599 238 q 454 160 524 160 z "},"þ":{"ha":874,"x_min":97,"x_max":826,"o":"m 97 -232 l 311 -232 l 311 110 l 321 110 q 408 19 349 51 q 540 -14 468 -14 q 749 74 672 -14 q 826 356 826 163 l 826 388 q 758 658 826 557 q 540 760 690 760 q 408 727 467 760 q 321 636 349 694 l 311 636 l 311 1013 l 97 1013 l 97 -232 m 454 160 q 351 199 389 160 q 313 311 313 239 l 313 433 q 351 546 313 506 q 454 586 389 586 q 561 547 524 586 q 599 436 599 507 l 599 308 q 561 199 599 238 q 454 160 524 160 z "},"q":{"ha":874,"x_min":49,"x_max":776,"o":"m 563 -232 l 776 -232 l 776 746 l 574 746 l 563 636 l 553 636 q 467 727 525 694 q 335 760 408 760 q 126 672 203 760 q 49 388 49 583 l 49 356 q 117 87 49 188 q 333 -14 185 -14 q 466 19 407 -14 q 553 110 525 51 l 563 110 l 563 -232 m 419 160 q 314 199 351 160 q 276 308 276 238 l 276 436 q 314 547 276 507 q 419 586 351 586 q 524 546 485 586 q 563 433 563 506 l 563 311 q 524 199 563 239 q 419 160 485 160 z "},"r":{"ha":613,"x_min":97,"x_max":567,"o":"m 97 0 l 311 0 l 311 574 l 567 574 l 567 746 l 263 746 q 143 701 189 746 q 97 581 97 657 l 97 0 z "},"ŕ":{"ha":613,"x_min":97,"x_max":569,"o":"m 97 0 l 311 0 l 311 574 l 567 574 l 567 746 l 263 746 q 143 701 189 746 q 97 581 97 657 l 97 0 z "},"ř":{"ha":613,"x_min":97,"x_max":621,"o":"m 97 0 l 311 0 l 311 574 l 567 574 l 567 746 l 263 746 q 143 701 189 746 q 97 581 97 657 l 97 0 z "},"ŗ":{"ha":613,"x_min":97,"x_max":567,"o":"m 97 0 l 311 0 l 311 574 l 567 574 l 567 746 l 263 746 q 143 701 189 746 q 97 581 97 657 l 97 0 m 99 -436 l 149 -436 q 260 -397 218 -435 q 303 -271 303 -360 l 303 -79 l 107 -79 l 107 -232 l 206 -232 l 206 -254 q 188 -309 206 -289 q 128 -331 171 -329 l 99 -329 l 99 -436 z "},"s":{"ha":753,"x_min":43,"x_max":699,"o":"m 371 -14 q 613 51 528 -14 q 699 225 699 115 q 675 340 699 296 q 610 408 651 383 q 519 445 569 433 q 417 464 469 457 q 313 488 354 474 q 272 546 272 501 q 297 597 272 578 q 371 617 322 617 q 451 594 421 617 q 481 528 481 571 l 682 526 q 594 699 679 638 q 371 760 508 760 q 211 732 281 760 q 102 651 142 704 q 63 519 63 597 q 103 395 63 440 q 208 329 144 350 q 339 299 272 308 q 447 272 413 288 q 482 207 482 256 q 458 155 482 176 q 378 133 433 133 q 287 157 322 133 q 249 236 251 181 l 44 236 q 127 56 43 125 q 371 -14 211 -14 z "},"ś":{"ha":753,"x_min":43,"x_max":699,"o":"m 371 -14 q 613 51 528 -14 q 699 225 699 115 q 675 340 699 296 q 611 408 651 383 q 520 444 571 432 q 415 464 469 457 q 313 487 354 472 q 272 546 272 501 q 297 599 272 579 q 371 619 322 619 q 451 596 421 619 q 481 528 481 572 l 682 528 q 594 699 679 638 q 371 760 510 760 q 211 732 281 760 q 102 651 142 704 q 63 519 63 597 q 104 396 63 440 q 210 330 146 351 q 340 299 274 308 q 448 272 414 288 q 482 207 482 256 q 458 153 482 175 q 378 131 433 131 q 287 155 322 131 q 249 235 251 179 l 44 236 q 127 55 43 124 q 371 -14 211 -14 z "},"š":{"ha":753,"x_min":43,"x_max":699,"o":"m 371 -14 q 613 51 528 -14 q 699 225 699 115 q 675 340 699 296 q 611 408 651 383 q 520 444 571 432 q 415 464 469 457 q 313 487 354 472 q 272 546 272 501 q 297 599 272 579 q 371 619 322 619 q 451 596 421 619 q 481 528 481 572 l 682 528 q 594 699 679 638 q 371 760 510 760 q 211 732 281 760 q 102 651 142 704 q 63 519 63 597 q 104 396 63 440 q 210 330 146 351 q 340 299 274 308 q 448 272 414 288 q 482 207 482 256 q 458 153 482 175 q 378 131 433 131 q 287 155 322 131 q 249 235 251 179 l 44 236 q 127 55 43 124 q 371 -14 211 -14 z "},"ş":{"ha":753,"x_min":43,"x_max":699,"o":"m 371 -14 q 613 51 528 -14 q 699 225 699 115 q 675 340 699 296 q 611 408 651 383 q 520 444 571 432 q 415 464 469 457 q 313 487 354 472 q 272 546 272 501 q 297 599 272 579 q 371 619 322 619 q 451 596 421 619 q 481 528 481 572 l 682 528 q 594 699 679 638 q 371 760 510 760 q 211 732 281 760 q 102 651 142 704 q 63 519 63 597 q 104 396 63 440 q 210 330 146 351 q 340 299 274 308 q 448 272 414 288 q 482 207 482 256 q 458 153 482 175 q 378 131 433 131 q 287 155 322 131 q 249 235 251 179 l 44 236 q 127 55 43 124 q 371 -14 211 -14 z "},"ș":{"ha":753,"x_min":43,"x_max":699,"o":"m 371 -14 q 613 51 528 -14 q 699 225 699 115 q 675 340 699 296 q 611 408 651 383 q 520 444 571 432 q 415 464 469 457 q 313 487 354 472 q 272 546 272 501 q 297 599 272 579 q 371 619 322 619 q 451 596 421 619 q 481 528 481 572 l 682 528 q 594 699 679 638 q 371 760 510 760 q 211 732 281 760 q 102 651 142 704 q 63 519 63 597 q 104 396 63 440 q 210 330 146 351 q 340 299 274 308 q 448 272 414 288 q 482 207 482 256 q 458 153 482 175 q 378 131 433 131 q 287 155 322 131 q 249 235 251 179 l 44 236 q 127 55 43 124 q 371 -14 211 -14 m 268 -436 l 318 -436 q 430 -397 388 -435 q 472 -271 472 -360 l 472 -79 l 276 -79 l 276 -232 l 375 -232 l 375 -254 q 358 -309 375 -289 q 297 -331 340 -329 l 268 -329 l 268 -436 z "},"ß":{"ha":978,"x_min":32,"x_max":924,"o":"m 168 -232 l 389 -232 l 389 0 l 568 0 q 835 82 746 0 q 924 294 924 164 q 871 464 924 396 q 725 546 818 532 l 725 556 q 821 630 786 575 q 856 757 856 685 q 815 898 856 838 q 701 992 775 958 q 528 1026 628 1026 q 364 998 439 1026 q 239 908 289 969 q 174 746 189 846 l 32 746 l 32 574 l 168 574 l 168 -232 m 525 835 q 622 802 589 835 q 654 717 654 769 q 619 631 654 665 q 518 597 583 597 l 486 597 l 486 457 l 563 457 q 662 428 624 457 q 700 339 700 399 l 700 297 q 661 210 700 246 q 543 175 622 175 l 389 175 l 389 690 q 425 797 389 760 q 525 835 461 835 z "},"t":{"ha":640,"x_min":32,"x_max":590,"o":"m 358 0 l 582 0 l 582 167 l 407 167 l 407 574 l 590 574 l 590 746 l 407 746 l 407 979 l 193 979 l 193 746 l 32 746 l 32 574 l 193 574 l 193 165 q 231 46 193 92 q 358 0 269 0 z "},"ŧ":{"ha":640,"x_min":32,"x_max":590,"o":"m 358 0 l 582 0 l 582 167 l 407 167 l 407 574 l 590 574 l 590 746 l 407 746 l 407 979 l 193 979 l 193 746 l 32 746 l 32 574 l 193 574 l 193 165 q 231 46 193 92 q 358 0 269 0 m 88 313 l 532 313 l 532 443 l 88 443 l 88 313 z "},"ť":{"ha":626,"x_min":32,"x_max":667,"o":"m 476 826 l 525 828 q 630 866 593 829 q 667 982 667 903 l 667 1201 l 488 1201 l 488 1043 l 561 1043 l 561 1003 q 547 949 561 968 q 497 929 532 931 l 476 928 l 476 826 m 358 0 l 582 0 l 582 167 l 407 167 l 407 574 l 590 574 l 590 746 l 407 746 l 407 979 l 193 979 l 193 746 l 32 746 l 32 574 l 193 574 l 193 165 q 231 46 193 92 q 358 0 269 0 z "},"ţ":{"ha":640,"x_min":32,"x_max":593,"o":"m 358 0 l 582 0 l 582 167 l 407 167 l 407 574 l 590 574 l 590 746 l 407 746 l 407 979 l 193 979 l 193 746 l 32 746 l 32 574 l 193 574 l 193 165 q 231 46 193 92 q 358 0 269 0 z "},"ț":{"ha":640,"x_min":32,"x_max":590,"o":"m 358 0 l 582 0 l 582 167 l 407 167 l 407 574 l 590 574 l 590 746 l 407 746 l 407 979 l 193 979 l 193 746 l 32 746 l 32 574 l 193 574 l 193 165 q 231 46 193 92 q 358 0 269 0 m 290 -436 l 340 -436 q 452 -397 410 -435 q 494 -271 494 -360 l 494 -79 l 299 -79 l 299 -232 l 397 -232 l 397 -254 q 380 -309 397 -289 q 319 -331 363 -329 l 290 -329 l 290 -436 z "},"u":{"ha":879,"x_min":90,"x_max":789,"o":"m 336 -14 q 478 24 418 -14 q 564 122 539 61 l 575 122 l 590 0 l 789 0 l 789 746 l 576 746 l 576 329 q 540 206 576 253 q 433 158 504 158 q 338 191 374 158 q 303 313 303 224 l 303 746 l 90 746 l 90 282 q 151 67 90 149 q 336 -14 213 -14 z "},"ú":{"ha":879,"x_min":90,"x_max":789,"o":"m 336 -14 q 478 24 418 -14 q 564 122 539 61 l 575 122 l 590 0 l 789 0 l 789 746 l 576 746 l 576 329 q 540 206 576 253 q 433 158 504 158 q 338 191 374 158 q 303 313 303 224 l 303 746 l 90 746 l 90 282 q 151 67 90 149 q 336 -14 213 -14 z "},"û":{"ha":879,"x_min":90,"x_max":789,"o":"m 336 -14 q 478 24 418 -14 q 564 122 539 61 l 575 122 l 590 0 l 789 0 l 789 746 l 576 746 l 576 329 q 540 206 576 253 q 433 158 504 158 q 338 191 374 158 q 303 313 303 224 l 303 746 l 90 746 l 90 282 q 151 67 90 149 q 336 -14 213 -14 z "},"ü":{"ha":879,"x_min":90,"x_max":789,"o":"m 336 -14 q 478 24 418 -14 q 564 122 539 61 l 575 122 l 590 0 l 789 0 l 789 746 l 576 746 l 576 329 q 540 206 576 253 q 433 158 504 158 q 338 191 374 158 q 303 313 303 224 l 303 746 l 90 746 l 90 282 q 151 67 90 149 q 336 -14 213 -14 z "},"ù":{"ha":879,"x_min":90,"x_max":789,"o":"m 336 -14 q 478 24 418 -14 q 564 122 539 61 l 575 122 l 590 0 l 789 0 l 789 746 l 576 746 l 576 329 q 540 206 576 253 q 433 158 504 158 q 338 191 374 158 q 303 313 303 224 l 303 746 l 90 746 l 90 282 q 151 67 90 149 q 336 -14 213 -14 z "},"ű":{"ha":879,"x_min":90,"x_max":829,"o":"m 336 -14 q 478 24 418 -14 q 564 122 539 61 l 575 122 l 590 0 l 789 0 l 789 746 l 576 746 l 576 329 q 540 206 576 253 q 433 158 504 158 q 338 191 374 158 q 303 313 303 224 l 303 746 l 90 746 l 90 282 q 151 67 90 149 q 336 -14 213 -14 z "},"ū":{"ha":879,"x_min":90,"x_max":789,"o":"m 336 -14 q 478 24 418 -14 q 564 122 539 61 l 575 122 l 590 0 l 789 0 l 789 746 l 576 746 l 576 329 q 540 206 576 253 q 433 158 504 158 q 338 191 374 158 q 303 313 303 224 l 303 746 l 90 746 l 90 282 q 151 67 90 149 q 336 -14 213 -14 z "},"ų":{"ha":879,"x_min":90,"x_max":839,"o":"m 336 -14 q 478 24 418 -14 q 564 122 539 61 l 575 122 l 590 0 l 789 0 l 789 746 l 576 746 l 576 329 q 540 206 576 253 q 433 158 504 158 q 338 191 374 158 q 303 313 303 224 l 303 746 l 90 746 l 90 282 q 151 67 90 149 q 336 -14 213 -14 m 693 -262 l 811 -262 l 839 -128 l 751 -128 q 685 -107 700 -128 q 681 -43 669 -86 l 700 31 l 610 26 q 555 -54 579 -12 q 531 -140 531 -96 q 573 -231 531 -199 q 693 -262 615 -262 z "},"ů":{"ha":879,"x_min":90,"x_max":789,"o":"m 336 -14 q 478 24 418 -14 q 564 122 539 61 l 575 122 l 590 0 l 789 0 l 789 746 l 576 746 l 576 329 q 540 206 576 253 q 433 158 504 158 q 338 191 374 158 q 303 313 303 224 l 303 746 l 90 746 l 90 282 q 151 67 90 149 q 336 -14 213 -14 z "},"v":{"ha":818,"x_min":18,"x_max":799,"o":"m 276 0 l 543 0 l 799 746 l 581 746 l 414 189 l 406 189 l 236 746 l 18 746 l 276 0 z "},"w":{"ha":1132,"x_min":26,"x_max":1106,"o":"m 210 0 l 453 0 l 549 418 l 558 481 l 565 481 l 576 418 l 674 0 l 919 0 l 1106 746 l 908 746 l 801 263 l 793 210 l 786 210 l 778 263 l 671 746 l 463 746 l 351 263 l 343 210 l 336 210 l 328 263 l 221 746 l 26 746 l 210 0 z "},"ẃ":{"ha":1132,"x_min":26,"x_max":1106,"o":"m 210 0 l 453 0 l 549 418 l 558 481 l 565 481 l 576 418 l 674 0 l 919 0 l 1106 746 l 908 746 l 801 263 l 793 210 l 786 210 l 778 263 l 671 746 l 463 746 l 351 263 l 343 210 l 336 210 l 328 263 l 221 746 l 26 746 l 210 0 z "},"ŵ":{"ha":1132,"x_min":26,"x_max":1106,"o":"m 210 0 l 453 0 l 549 418 l 558 481 l 565 481 l 576 418 l 674 0 l 919 0 l 1106 746 l 908 746 l 801 263 l 793 210 l 786 210 l 778 263 l 671 746 l 463 746 l 351 263 l 343 210 l 336 210 l 328 263 l 221 746 l 26 746 l 210 0 z "},"ẅ":{"ha":1132,"x_min":26,"x_max":1106,"o":"m 210 0 l 453 0 l 549 418 l 558 481 l 565 481 l 576 418 l 674 0 l 919 0 l 1106 746 l 908 746 l 801 263 l 793 210 l 786 210 l 778 263 l 671 746 l 463 746 l 351 263 l 343 210 l 336 210 l 328 263 l 221 746 l 26 746 l 210 0 z "},"ẁ":{"ha":1132,"x_min":26,"x_max":1106,"o":"m 210 0 l 453 0 l 549 418 l 558 481 l 565 481 l 576 418 l 674 0 l 919 0 l 1106 746 l 908 746 l 801 263 l 793 210 l 786 210 l 778 263 l 671 746 l 463 746 l 351 263 l 343 210 l 336 210 l 328 263 l 221 746 l 26 746 l 210 0 z "},"x":{"ha":856,"x_min":10,"x_max":846,"o":"m 10 0 l 256 0 l 417 250 l 429 250 l 590 0 l 846 0 l 575 394 l 825 746 l 576 746 l 435 517 l 424 517 l 281 746 l 31 746 l 282 393 l 10 0 z "},"y":{"ha":847,"x_min":24,"x_max":825,"o":"m 54 -232 l 388 -232 q 492 -199 453 -232 q 531 -96 531 -165 l 531 81 l 825 746 l 603 746 l 449 344 l 426 274 l 418 274 l 396 344 l 246 746 l 24 746 l 318 81 l 318 -65 l 54 -65 l 54 -232 z "},"ý":{"ha":847,"x_min":24,"x_max":825,"o":"m 54 -232 l 388 -232 q 492 -199 453 -232 q 531 -96 531 -165 l 531 81 l 825 746 l 603 746 l 449 344 l 426 274 l 418 274 l 396 344 l 246 746 l 24 746 l 318 81 l 318 -65 l 54 -65 l 54 -232 z "},"ŷ":{"ha":847,"x_min":24,"x_max":825,"o":"m 54 -232 l 388 -232 q 492 -199 453 -232 q 531 -96 531 -165 l 531 81 l 825 746 l 603 746 l 449 344 l 426 274 l 418 274 l 396 344 l 246 746 l 24 746 l 318 81 l 318 -65 l 54 -65 l 54 -232 z "},"ÿ":{"ha":847,"x_min":24,"x_max":825,"o":"m 54 -232 l 388 -232 q 492 -199 453 -232 q 531 -96 531 -165 l 531 81 l 825 746 l 603 746 l 449 344 l 426 274 l 418 274 l 396 344 l 246 746 l 24 746 l 318 81 l 318 -65 l 54 -65 l 54 -232 z "},"ỳ":{"ha":847,"x_min":24,"x_max":825,"o":"m 54 -232 l 388 -232 q 492 -199 453 -232 q 531 -96 531 -165 l 531 81 l 825 746 l 603 746 l 449 344 l 426 274 l 418 274 l 396 344 l 246 746 l 24 746 l 318 81 l 318 -65 l 54 -65 l 54 -232 z "},"z":{"ha":758,"x_min":54,"x_max":703,"o":"m 54 0 l 703 0 l 703 172 l 340 172 l 681 594 l 681 746 l 72 746 l 72 574 l 404 574 l 54 154 l 54 0 z "},"ź":{"ha":758,"x_min":54,"x_max":703,"o":"m 54 0 l 703 0 l 703 172 l 340 172 l 681 594 l 681 746 l 72 746 l 72 574 l 404 574 l 54 154 l 54 0 z "},"ž":{"ha":758,"x_min":54,"x_max":703,"o":"m 54 0 l 703 0 l 703 172 l 340 172 l 681 594 l 681 746 l 72 746 l 72 574 l 404 574 l 54 154 l 54 0 z "},"ż":{"ha":758,"x_min":54,"x_max":703,"o":"m 54 0 l 703 0 l 703 172 l 340 172 l 681 594 l 681 746 l 72 746 l 72 574 l 404 574 l 54 154 l 54 0 z "},"ﬁ":{"ha":976,"x_min":24,"x_max":879,"o":"m 665 840 l 879 840 l 879 1013 l 665 1013 l 665 840 m 665 574 l 665 0 l 879 0 l 879 746 l 383 746 l 383 872 l 567 872 l 567 1013 l 336 1013 q 215 975 261 1013 q 169 867 169 938 l 169 746 l 24 746 l 24 574 l 169 574 l 169 0 l 383 0 l 383 574 l 665 574 z "},"ª":{"ha":538,"x_min":32,"x_max":490,"o":"m 188 535 q 285 557 244 535 q 339 618 325 579 l 346 618 l 354 544 l 490 544 l 490 854 q 435 994 490 949 q 275 1040 379 1040 q 110 996 171 1040 q 47 867 50 951 l 185 867 q 208 908 188 894 q 263 921 228 921 q 316 905 296 921 q 336 854 336 889 l 336 836 l 224 826 q 78 781 125 817 q 32 671 32 744 l 32 669 q 75 572 32 608 q 188 535 118 535 m 253 644 q 205 656 224 644 q 186 690 186 668 l 186 700 q 247 747 186 740 l 336 757 l 336 706 q 313 662 336 679 q 253 644 290 644 z "},"º":{"ha":546,"x_min":32,"x_max":510,"o":"m 271 535 q 451 603 392 535 q 510 783 510 672 l 510 786 q 444 978 510 915 q 271 1040 378 1040 q 98 978 164 1040 q 32 786 32 917 l 32 783 q 91 603 32 672 q 271 535 150 535 m 271 660 q 188 744 188 660 l 188 831 q 210 894 188 871 q 271 917 232 917 q 331 894 310 917 q 353 831 353 871 l 353 744 q 271 660 353 660 z "},"μ":{"ha":900,"x_min":90,"x_max":810,"o":"m 90 -183 l 303 -183 l 303 -7 q 356 -12 328 -12 q 497 24 435 -12 q 588 135 560 60 l 597 135 l 606 0 l 810 0 l 810 747 l 597 747 l 597 332 q 560 208 597 256 q 442 160 522 160 q 339 197 375 160 q 303 301 303 233 l 303 747 l 90 747 l 90 -183 z "},"➀":{"ha":1229,"x_min":65,"x_max":1167,"o":"m 617 -42 q 903 26 779 -42 q 1097 214 1026 93 q 1167 494 1167 335 l 1167 518 q 1097 800 1167 679 q 903 988 1026 921 q 617 1054 779 1054 q 331 988 456 1054 q 135 800 206 921 q 65 518 65 679 l 65 494 q 135 214 65 335 q 331 26 206 93 q 617 -42 456 -42 m 617 57 q 384 112 485 57 q 227 265 283 167 q 171 494 171 364 l 171 518 q 227 747 171 649 q 384 901 283 846 q 617 956 485 956 q 847 901 747 956 q 1004 747 947 846 q 1061 518 1061 649 l 1061 494 q 1004 265 1061 364 q 847 112 947 167 q 617 57 747 57 m 571 213 l 721 213 l 721 800 l 593 800 l 574 696 l 433 696 l 433 581 l 571 581 l 571 213 z "},"➁":{"ha":1229,"x_min":65,"x_max":1167,"o":"m 617 -42 q 903 26 779 -42 q 1097 214 1026 93 q 1167 494 1167 335 l 1167 518 q 1097 800 1167 679 q 903 988 1026 921 q 617 1054 779 1054 q 331 988 456 1054 q 135 800 206 921 q 65 518 65 679 l 65 494 q 135 214 65 335 q 331 26 206 93 q 617 -42 456 -42 m 617 57 q 384 112 485 57 q 227 265 283 167 q 171 494 171 364 l 171 518 q 227 747 171 649 q 384 901 283 846 q 617 956 485 956 q 847 901 747 956 q 1004 747 947 846 q 1061 518 1061 649 l 1061 494 q 1004 265 1061 364 q 847 112 947 167 q 617 57 747 57 m 408 208 l 825 208 l 825 332 l 604 332 l 715 435 q 795 528 769 482 q 821 629 821 574 q 764 758 821 713 q 621 804 707 804 q 462 751 524 804 q 404 599 400 697 l 551 599 q 566 656 550 635 q 613 676 582 676 q 651 662 636 676 q 667 624 667 647 l 667 604 q 641 553 667 582 q 590 500 615 524 l 408 324 l 408 208 z "},"➂":{"ha":1229,"x_min":65,"x_max":1167,"o":"m 617 -42 q 903 26 779 -42 q 1097 214 1026 93 q 1167 494 1167 335 l 1167 518 q 1097 800 1167 679 q 903 988 1026 921 q 617 1054 779 1054 q 331 988 456 1054 q 135 800 206 921 q 65 518 65 679 l 65 494 q 135 214 65 335 q 331 26 206 93 q 617 -42 456 -42 m 617 57 q 384 112 485 57 q 227 265 283 167 q 171 494 171 364 l 171 518 q 227 747 171 649 q 384 901 283 846 q 617 956 485 956 q 847 901 747 956 q 1004 747 947 846 q 1061 518 1061 649 l 1061 494 q 1004 265 1061 364 q 847 112 947 167 q 617 57 747 57 m 610 204 q 777 254 717 204 q 838 385 838 304 q 809 474 838 438 q 732 519 781 511 l 732 525 q 797 571 772 538 q 821 651 821 604 q 766 767 821 725 q 621 808 711 808 q 459 760 519 808 q 397 624 399 711 l 543 624 q 565 669 546 656 q 611 683 585 683 q 655 669 639 683 q 671 631 671 656 l 671 617 q 653 578 671 593 q 601 564 635 564 l 544 564 l 544 456 l 615 456 q 682 400 682 456 l 682 386 q 663 344 682 360 q 614 329 644 329 q 563 344 583 329 q 542 390 542 360 l 393 390 q 452 253 392 303 q 610 204 513 204 z "},"➃":{"ha":1229,"x_min":65,"x_max":1167,"o":"m 617 -42 q 903 26 779 -42 q 1097 214 1026 93 q 1167 494 1167 335 l 1167 518 q 1097 800 1167 679 q 903 988 1026 921 q 617 1054 779 1054 q 331 988 456 1054 q 135 800 206 921 q 65 518 65 679 l 65 494 q 135 214 65 335 q 331 26 206 93 q 617 -42 456 -42 m 617 57 q 384 112 485 57 q 227 265 283 167 q 171 494 171 364 l 171 518 q 227 747 171 649 q 384 901 283 846 q 617 956 485 956 q 847 901 747 956 q 1004 747 947 846 q 1061 518 1061 649 l 1061 494 q 1004 265 1061 364 q 847 112 947 167 q 617 57 747 57 m 631 213 l 781 213 l 781 328 l 857 328 l 857 450 l 781 450 l 781 565 l 676 565 l 650 450 l 542 450 l 542 458 l 711 800 l 553 800 l 372 431 l 372 328 l 631 328 l 631 213 z "},"➄":{"ha":1229,"x_min":65,"x_max":1167,"o":"m 617 -42 q 903 26 779 -42 q 1097 214 1026 93 q 1167 494 1167 335 l 1167 518 q 1097 800 1167 679 q 903 988 1026 921 q 617 1054 779 1054 q 331 988 456 1054 q 135 800 206 921 q 65 518 65 679 l 65 494 q 135 214 65 335 q 331 26 206 93 q 617 -42 456 -42 m 617 57 q 384 112 485 57 q 227 265 283 167 q 171 494 171 364 l 171 518 q 227 747 171 649 q 384 901 283 846 q 617 956 485 956 q 847 901 747 956 q 1004 747 947 846 q 1061 518 1061 649 l 1061 494 q 1004 265 1061 364 q 847 112 947 167 q 617 57 747 57 m 613 208 q 779 264 718 208 q 840 410 840 319 q 790 555 840 504 q 657 606 739 606 q 602 597 629 606 q 560 569 575 588 l 553 572 l 565 679 l 811 679 l 811 804 l 428 804 l 411 439 l 560 439 q 580 472 563 460 q 621 485 597 485 q 667 468 649 485 q 686 422 686 451 l 686 400 q 668 353 686 371 q 619 336 650 336 q 575 349 593 336 q 554 385 557 363 l 410 385 q 464 257 408 306 q 613 208 519 208 z "},"➅":{"ha":1229,"x_min":65,"x_max":1167,"o":"m 617 -42 q 903 26 779 -42 q 1097 214 1026 93 q 1167 494 1167 335 l 1167 518 q 1097 800 1167 679 q 903 988 1026 921 q 617 1054 779 1054 q 331 988 456 1054 q 135 800 206 921 q 65 518 65 679 l 65 494 q 135 214 65 335 q 331 26 206 93 q 617 -42 456 -42 m 617 57 q 384 112 485 57 q 227 265 283 167 q 171 494 171 364 l 171 518 q 227 747 171 649 q 384 901 283 846 q 617 956 485 956 q 847 901 747 956 q 1004 747 947 846 q 1061 518 1061 649 l 1061 494 q 1004 265 1061 364 q 847 112 947 167 q 617 57 747 57 m 614 204 q 779 256 717 204 q 842 414 842 308 q 794 553 842 504 q 668 603 746 603 q 594 584 626 603 q 546 533 561 565 l 540 533 q 539 550 539 542 q 539 564 539 558 q 560 655 539 625 q 619 685 582 685 q 683 643 678 685 l 829 643 q 771 764 825 719 q 631 808 717 808 q 453 742 521 808 q 386 519 386 675 l 386 490 q 415 322 386 385 q 496 232 444 260 q 614 204 547 204 m 624 332 q 577 349 596 332 q 558 400 558 365 l 558 439 q 624 489 572 489 q 672 470 656 489 q 688 424 688 451 l 688 397 q 672 351 688 371 q 624 332 657 332 z "},"➆":{"ha":1229,"x_min":65,"x_max":1167,"o":"m 617 -42 q 903 26 779 -42 q 1097 214 1026 93 q 1167 494 1167 335 l 1167 518 q 1097 800 1167 679 q 903 988 1026 921 q 617 1054 779 1054 q 331 988 456 1054 q 135 800 206 921 q 65 518 65 679 l 65 494 q 135 214 65 335 q 331 26 206 93 q 617 -42 456 -42 m 617 57 q 384 112 485 57 q 227 265 283 167 q 171 494 171 364 l 171 518 q 227 747 171 649 q 384 901 283 846 q 617 956 485 956 q 847 901 747 956 q 1004 747 947 846 q 1061 518 1061 649 l 1061 494 q 1004 265 1061 364 q 847 112 947 167 q 617 57 747 57 m 517 213 l 679 213 q 687 319 682 275 q 701 401 692 364 q 728 478 711 439 q 772 567 746 517 q 835 690 797 618 l 835 800 l 396 800 l 396 578 l 515 578 l 515 669 l 671 669 l 671 656 q 602 543 631 592 q 556 449 574 494 q 529 348 539 404 q 517 213 519 292 z "},"➇":{"ha":1229,"x_min":65,"x_max":1167,"o":"m 617 -42 q 903 26 779 -42 q 1097 214 1026 93 q 1167 494 1167 335 l 1167 518 q 1097 800 1167 679 q 903 988 1026 921 q 617 1054 779 1054 q 331 988 456 1054 q 135 800 206 921 q 65 518 65 679 l 65 494 q 135 214 65 335 q 331 26 206 93 q 617 -42 456 -42 m 617 57 q 384 112 485 57 q 227 265 283 167 q 171 494 171 364 l 171 518 q 227 747 171 649 q 384 901 283 846 q 617 956 485 956 q 847 901 747 956 q 1004 747 947 846 q 1061 518 1061 649 l 1061 494 q 1004 265 1061 364 q 847 112 947 167 q 617 57 747 57 m 614 204 q 780 253 721 204 q 839 376 839 301 q 810 472 839 435 q 732 519 781 510 l 732 525 q 801 572 778 538 q 825 649 825 606 q 767 767 825 725 q 614 808 708 808 q 460 766 517 808 q 403 649 403 724 q 428 569 403 601 q 497 525 454 536 l 497 519 q 417 469 446 510 q 389 376 389 428 q 448 252 389 300 q 614 204 507 204 m 614 560 q 570 574 588 560 q 553 614 553 588 l 553 631 q 569 672 553 657 q 614 688 585 688 q 658 672 642 688 q 675 631 675 657 l 675 614 q 658 574 675 588 q 614 560 642 560 m 614 325 q 563 341 583 325 q 543 389 543 357 l 543 403 q 561 449 543 431 q 614 467 579 467 q 666 449 649 467 q 683 403 683 431 l 683 389 q 665 341 683 357 q 614 325 646 325 z "},"➈":{"ha":1229,"x_min":65,"x_max":1167,"o":"m 617 -42 q 903 26 779 -42 q 1097 214 1026 93 q 1167 494 1167 335 l 1167 518 q 1097 800 1167 679 q 903 988 1026 921 q 617 1054 779 1054 q 331 988 456 1054 q 135 800 206 921 q 65 518 65 679 l 65 494 q 135 214 65 335 q 331 26 206 93 q 617 -42 456 -42 m 617 57 q 384 112 485 57 q 227 265 283 167 q 171 494 171 364 l 171 518 q 227 747 171 649 q 384 901 283 846 q 617 956 485 956 q 847 901 747 956 q 1004 747 947 846 q 1061 518 1061 649 l 1061 494 q 1004 265 1061 364 q 847 112 947 167 q 617 57 747 57 m 599 204 q 775 271 708 204 q 842 493 842 338 l 842 522 q 813 690 842 628 q 733 781 783 753 q 614 808 682 808 q 449 757 513 808 q 386 599 386 706 q 434 459 386 508 q 560 410 482 410 q 638 429 604 410 q 683 479 671 449 l 689 479 l 689 449 q 608 328 689 328 q 546 369 553 328 l 400 369 q 459 249 404 293 q 599 204 514 204 m 604 524 q 558 542 574 524 q 542 589 542 561 l 542 614 q 558 661 542 642 q 606 681 574 681 q 651 664 633 681 q 669 613 669 647 l 669 574 q 604 524 658 524 z "},"₀":{"ha":624,"x_min":53,"x_max":569,"o":"m 311 -106 q 460 -61 403 -106 q 543 61 517 -17 q 569 238 569 139 l 569 249 q 543 429 569 350 q 460 554 517 508 q 311 600 403 600 q 163 554 219 600 q 79 428 106 508 q 53 249 53 349 l 53 238 q 79 61 53 139 q 163 -61 106 -17 q 311 -106 221 -106 m 311 43 q 251 70 274 43 q 228 154 228 97 l 228 340 q 247 420 228 389 q 311 451 267 451 q 375 421 356 451 q 394 340 394 390 l 394 154 q 372 70 394 97 q 311 43 350 43 z "},"₁":{"ha":544,"x_min":69,"x_max":406,"o":"m 231 -99 l 406 -99 l 406 590 l 260 590 l 235 468 l 69 468 l 69 336 l 231 336 l 231 -99 z "},"₂":{"ha":618,"x_min":54,"x_max":551,"o":"m 64 -99 l 551 -99 l 551 43 l 288 43 l 421 167 q 516 277 486 224 q 546 394 546 331 q 479 546 546 492 q 311 600 413 600 q 126 538 197 600 q 60 358 54 475 l 226 358 q 246 430 225 407 q 301 453 267 453 q 349 435 331 453 q 368 390 368 418 l 368 368 q 338 306 368 340 q 279 242 308 271 l 64 35 l 64 -99 z "},"₃":{"ha":631,"x_min":47,"x_max":567,"o":"m 301 -108 q 496 -50 425 -108 q 567 104 567 8 q 533 208 567 165 q 443 261 500 251 l 443 268 q 519 322 489 283 q 549 415 549 360 q 483 551 549 501 q 314 600 418 600 q 126 543 196 600 q 53 383 56 486 l 221 383 q 245 439 224 421 q 301 457 267 457 q 356 440 335 457 q 376 394 376 424 l 376 376 q 354 330 376 349 q 292 311 332 311 l 225 311 l 225 188 l 307 188 q 388 121 388 188 l 388 103 q 365 53 388 72 q 306 35 343 35 q 244 53 268 35 q 219 110 219 72 l 49 110 q 117 -51 47 7 q 301 -108 188 -108 z "},"₄":{"ha":668,"x_min":57,"x_max":624,"o":"m 360 -99 l 533 -99 l 533 39 l 624 39 l 624 179 l 533 179 l 533 314 l 390 314 l 360 179 l 251 179 l 251 188 l 450 590 l 268 590 l 57 157 l 57 39 l 360 39 l 360 -99 z "},"₅":{"ha":632,"x_min":69,"x_max":572,"o":"m 308 -108 q 501 -44 431 -108 q 572 129 572 21 q 513 299 572 240 q 358 357 453 357 q 293 346 326 357 q 240 314 260 335 l 235 315 l 247 447 l 540 447 l 540 590 l 92 590 l 71 165 l 240 165 q 266 204 244 189 q 315 219 288 219 q 373 199 350 219 q 396 143 396 179 l 396 114 q 374 59 396 81 q 314 38 351 38 q 260 56 281 38 q 236 99 239 74 l 71 99 q 133 -51 69 7 q 308 -108 197 -108 z "},"₆":{"ha":642,"x_min":58,"x_max":590,"o":"m 325 -108 q 517 -48 443 -108 q 590 136 590 13 q 534 300 590 243 q 385 357 478 357 q 295 334 333 357 q 240 275 257 311 l 233 275 q 232 295 232 286 q 232 313 232 304 q 258 422 232 386 q 331 458 283 458 q 383 446 363 458 q 407 407 403 433 l 574 407 q 504 548 568 496 q 342 600 440 600 q 136 522 214 600 q 58 261 58 443 l 58 226 q 92 31 58 104 q 186 -76 126 -43 q 325 -108 246 -108 m 335 38 q 278 58 300 38 q 256 121 256 79 l 256 168 q 283 212 263 194 q 333 229 303 229 q 392 206 374 229 q 411 149 411 183 l 411 117 q 392 60 411 83 q 335 38 374 38 z "},"₇":{"ha":618,"x_min":50,"x_max":564,"o":"m 194 -99 l 379 -99 q 388 28 382 -25 q 406 126 393 82 q 438 217 418 171 q 489 322 458 264 q 564 464 519 381 l 564 590 l 50 590 l 50 332 l 186 332 l 186 440 l 375 440 l 375 426 q 294 292 328 350 q 239 181 260 235 q 208 61 218 126 q 194 -99 197 -4 z "},"₈":{"ha":640,"x_min":58,"x_max":582,"o":"m 319 -108 q 513 -51 444 -108 q 582 93 582 6 q 548 206 582 161 q 457 260 514 250 l 457 267 q 538 322 510 282 q 567 413 567 361 q 499 551 567 501 q 319 600 432 600 q 142 551 208 600 q 75 414 75 503 q 104 319 75 358 q 183 267 133 281 l 183 260 q 92 203 125 250 q 58 93 58 156 q 126 -52 58 4 q 319 -108 194 -108 m 319 307 q 267 325 288 307 q 246 374 246 343 l 246 393 q 265 443 246 425 q 319 461 285 461 q 375 443 356 461 q 394 393 394 425 l 394 374 q 373 324 394 342 q 319 307 351 307 m 319 29 q 258 49 281 29 q 235 106 235 69 l 235 125 q 256 178 235 158 q 319 199 278 199 q 384 178 363 199 q 406 125 406 158 l 406 106 q 382 49 406 68 q 319 29 358 29 z "},"₉":{"ha":640,"x_min":50,"x_max":582,"o":"m 297 -108 q 447 -74 383 -108 q 547 35 511 -40 q 582 231 582 110 l 582 265 q 548 461 582 388 q 453 567 514 535 q 314 600 393 600 q 123 540 196 600 q 50 354 50 479 q 106 191 50 249 q 253 133 161 133 q 342 156 301 133 q 397 217 382 178 l 406 217 q 407 197 407 207 q 407 179 407 188 q 381 69 407 106 q 308 33 356 33 q 231 85 239 33 l 65 85 q 133 -56 69 -3 q 297 -108 196 -108 m 304 263 q 247 285 267 263 q 228 342 228 307 l 228 375 q 247 431 228 408 q 306 454 267 454 q 363 433 340 454 q 385 371 385 413 l 385 324 q 356 279 376 296 q 304 263 335 263 z "},"⁰":{"ha":624,"x_min":53,"x_max":569,"o":"m 311 415 q 460 460 403 415 q 543 582 517 504 q 569 758 569 660 l 569 769 q 543 950 569 871 q 460 1075 517 1029 q 311 1121 403 1121 q 163 1075 219 1121 q 79 949 106 1029 q 53 769 53 869 l 53 758 q 79 582 53 660 q 163 460 106 504 q 311 415 221 415 m 311 564 q 251 591 274 564 q 228 675 228 618 l 228 861 q 247 941 228 910 q 311 972 267 972 q 375 942 356 972 q 394 861 394 911 l 394 675 q 372 591 394 618 q 311 564 350 564 z "},"¹":{"ha":544,"x_min":69,"x_max":406,"o":"m 231 422 l 406 422 l 406 1111 l 260 1111 l 235 989 l 69 989 l 69 857 l 231 857 l 231 422 z "},"²":{"ha":618,"x_min":54,"x_max":551,"o":"m 64 422 l 551 422 l 551 564 l 288 564 l 421 688 q 516 798 486 744 q 546 915 546 851 q 479 1067 546 1013 q 311 1121 413 1121 q 126 1058 197 1121 q 60 879 54 996 l 226 879 q 246 951 225 928 q 301 974 267 974 q 349 956 331 974 q 368 911 368 939 l 368 889 q 338 826 368 861 q 279 763 308 792 l 64 556 l 64 422 z "},"³":{"ha":631,"x_min":47,"x_max":567,"o":"m 301 413 q 496 471 425 413 q 567 625 567 529 q 533 729 567 686 q 443 782 500 772 l 443 789 q 519 842 489 804 q 549 936 549 881 q 483 1072 549 1022 q 314 1121 418 1121 q 126 1064 196 1121 q 53 904 56 1007 l 221 904 q 245 960 224 942 q 301 978 267 978 q 356 961 335 978 q 376 915 376 944 l 376 897 q 354 851 376 869 q 292 832 332 832 l 225 832 l 225 708 l 307 708 q 388 642 388 708 l 388 624 q 365 574 388 593 q 306 556 343 556 q 244 574 268 556 q 219 631 219 593 l 49 631 q 117 470 47 528 q 301 413 188 413 z "},"⁴":{"ha":668,"x_min":57,"x_max":624,"o":"m 360 422 l 533 422 l 533 560 l 624 560 l 624 700 l 533 700 l 533 835 l 390 835 l 360 700 l 251 700 l 251 708 l 450 1111 l 268 1111 l 57 678 l 57 560 l 360 560 l 360 422 z "},"⁵":{"ha":632,"x_min":69,"x_max":572,"o":"m 308 413 q 501 477 431 413 q 572 650 572 542 q 513 819 572 761 q 358 878 453 878 q 293 867 326 878 q 240 835 260 856 l 235 836 l 247 968 l 540 968 l 540 1111 l 92 1111 l 71 686 l 240 686 q 266 725 244 710 q 315 740 288 740 q 373 720 350 740 q 396 664 396 700 l 396 635 q 374 580 396 601 q 314 558 351 558 q 260 576 281 558 q 236 619 239 594 l 71 619 q 133 470 69 528 q 308 413 197 413 z "},"⁶":{"ha":642,"x_min":58,"x_max":590,"o":"m 325 413 q 517 473 443 413 q 590 657 590 533 q 534 821 590 764 q 385 878 478 878 q 295 855 333 878 q 240 796 257 832 l 233 796 q 232 816 232 807 q 232 833 232 825 q 258 943 232 907 q 331 979 283 979 q 383 967 363 979 q 407 928 403 954 l 574 928 q 504 1069 568 1017 q 342 1121 440 1121 q 136 1042 214 1121 q 58 782 58 964 l 58 747 q 92 551 58 625 q 186 445 126 478 q 325 413 246 413 m 335 558 q 278 579 300 558 q 256 642 256 600 l 256 689 q 283 733 263 715 q 333 750 303 750 q 392 727 374 750 q 411 669 411 704 l 411 638 q 392 581 411 604 q 335 558 374 558 z "},"⁷":{"ha":618,"x_min":50,"x_max":564,"o":"m 194 422 l 379 422 q 388 549 382 496 q 406 647 393 603 q 438 738 418 692 q 489 843 458 785 q 564 985 519 901 l 564 1111 l 50 1111 l 50 853 l 186 853 l 186 961 l 375 961 l 375 947 q 294 813 328 871 q 239 701 260 756 q 208 582 218 647 q 194 422 197 517 z "},"⁸":{"ha":640,"x_min":58,"x_max":582,"o":"m 319 413 q 513 469 444 413 q 582 614 582 526 q 548 726 582 682 q 457 781 514 771 l 457 788 q 538 842 510 803 q 567 933 567 882 q 499 1072 567 1022 q 319 1121 432 1121 q 142 1072 208 1121 q 75 935 75 1024 q 104 840 75 879 q 183 788 133 801 l 183 781 q 92 724 125 771 q 58 614 58 676 q 126 469 58 525 q 319 413 194 413 m 319 828 q 267 846 288 828 q 246 894 246 864 l 246 914 q 265 964 246 946 q 319 982 285 982 q 375 964 356 982 q 394 914 394 946 l 394 894 q 373 845 394 863 q 319 828 351 828 m 319 550 q 258 570 281 550 q 235 626 235 590 l 235 646 q 256 699 235 679 q 319 719 278 719 q 384 699 363 719 q 406 646 406 679 l 406 626 q 382 569 406 589 q 319 550 358 550 z "},"⁹":{"ha":640,"x_min":50,"x_max":582,"o":"m 297 413 q 447 447 383 413 q 547 556 511 481 q 582 751 582 631 l 582 786 q 548 982 582 908 q 453 1088 514 1056 q 314 1121 393 1121 q 123 1060 196 1121 q 50 875 50 1000 q 106 712 50 769 q 253 654 161 654 q 342 676 301 654 q 397 738 382 699 l 406 738 q 407 718 407 728 q 407 700 407 708 q 381 590 407 626 q 308 554 356 554 q 231 606 239 554 l 65 606 q 133 465 69 518 q 297 413 196 413 m 304 783 q 247 806 267 783 q 228 863 228 828 l 228 896 q 247 952 228 929 q 306 975 267 975 q 363 954 340 975 q 385 892 385 933 l 385 844 q 356 800 376 817 q 304 783 335 783 z "},"⁄":{"ha":238,"x_min":-235,"x_max":472,"o":"m -235 -64 l -103 -64 l 472 1067 l 340 1067 l -235 -64 z "},"½":{"ha":1122,"x_min":14,"x_max":1082,"o":"m 151 425 l 301 425 l 301 1013 l 174 1013 l 154 908 l 14 908 l 14 793 l 151 793 l 151 425 m 146 -64 l 278 -64 l 853 1067 l 721 1067 l 146 -64 m 665 0 l 1082 0 l 1082 124 l 861 124 l 972 226 q 1052 319 1026 274 q 1078 421 1078 365 q 1021 550 1078 504 q 878 596 964 596 q 719 542 781 596 q 661 390 657 489 l 808 390 q 823 447 807 426 q 869 468 839 468 q 908 453 893 468 q 924 415 924 439 l 924 396 q 898 344 924 374 q 847 292 872 315 l 665 115 l 665 0 z "},"¼":{"ha":1071,"x_min":14,"x_max":1057,"o":"m 151 425 l 301 425 l 301 1013 l 174 1013 l 154 908 l 14 908 l 14 793 l 151 793 l 151 425 m 146 -64 l 278 -64 l 853 1067 l 721 1067 l 146 -64 m 831 0 l 981 0 l 981 115 l 1057 115 l 1057 238 l 981 238 l 981 353 l 867 353 l 840 238 l 742 238 l 742 246 l 911 588 l 753 588 l 572 218 l 572 115 l 831 115 l 831 0 z "},"¾":{"ha":1210,"x_min":31,"x_max":1196,"o":"m 249 417 q 416 467 356 417 q 476 597 476 517 q 448 687 476 650 q 371 732 419 724 l 371 738 q 435 783 411 750 q 460 864 460 817 q 405 979 460 938 q 260 1021 350 1021 q 98 972 158 1021 q 36 836 38 924 l 182 836 q 204 882 185 868 q 250 896 224 896 q 294 882 278 896 q 310 843 310 868 l 310 829 q 292 791 310 806 q 240 776 274 776 l 183 776 l 183 668 l 254 668 q 321 613 321 668 l 321 599 q 302 557 321 572 q 253 542 283 542 q 201 557 222 542 q 181 603 181 572 l 32 603 q 91 466 31 515 q 249 417 151 417 m 283 -64 l 415 -64 l 990 1067 l 858 1067 l 283 -64 m 969 0 l 1119 0 l 1119 115 l 1196 115 l 1196 238 l 1119 238 l 1119 353 l 1006 353 l 979 238 l 881 238 l 881 246 l 1050 588 l 892 588 l 711 218 l 711 115 l 969 115 l 969 0 z "},".":{"ha":358,"x_min":78,"x_max":281,"o":"m 78 0 l 281 0 l 281 193 l 78 193 l 78 0 z "},",":{"ha":342,"x_min":40,"x_max":264,"o":"m 40 -236 l 94 -235 q 218 -194 172 -233 q 264 -56 264 -156 l 264 193 l 61 193 l 61 0 l 153 0 l 153 -47 q 134 -106 153 -85 q 68 -129 115 -128 l 40 -129 l 40 -236 z "},":":{"ha":442,"x_min":119,"x_max":322,"o":"m 119 554 l 322 554 l 322 747 l 119 747 l 119 554 m 119 0 l 322 0 l 322 193 l 119 193 l 119 0 z "},";":{"ha":442,"x_min":97,"x_max":322,"o":"m 119 554 l 322 554 l 322 747 l 119 747 l 119 554 m 97 -236 l 151 -235 q 276 -194 229 -233 q 322 -56 322 -156 l 322 193 l 119 193 l 119 0 l 211 0 l 211 -47 q 192 -106 211 -85 q 126 -129 174 -128 l 97 -129 l 97 -236 z "},"…":{"ha":1074,"x_min":78,"x_max":996,"o":"m 78 0 l 281 0 l 281 193 l 78 193 l 78 0 m 436 0 l 639 0 l 639 193 l 436 193 l 436 0 m 793 0 l 996 0 l 996 193 l 793 193 l 793 0 z "},"!":{"ha":425,"x_min":104,"x_max":321,"o":"m 158 315 l 268 315 l 321 679 l 321 1013 l 104 1013 l 104 679 l 158 315 m 115 0 l 308 0 l 308 196 l 115 196 l 115 0 z "},"¡":{"ha":425,"x_min":104,"x_max":321,"o":"m 267 431 l 157 431 l 104 67 l 104 -267 l 321 -267 l 321 67 l 267 431 m 310 746 l 117 746 l 117 550 l 310 550 l 310 746 z "},"?":{"ha":811,"x_min":53,"x_max":753,"o":"m 321 296 l 511 296 l 511 311 q 535 389 511 353 q 596 461 560 425 q 668 538 632 497 q 728 630 704 579 q 753 746 753 681 q 665 949 753 872 q 414 1026 576 1026 q 224 987 306 1026 q 98 877 143 947 q 53 713 53 807 l 261 713 q 297 810 261 772 q 404 847 333 847 q 501 815 469 847 q 533 725 533 783 q 512 645 533 682 q 459 574 490 608 q 396 502 428 539 q 342 422 364 465 q 321 322 321 378 l 321 296 m 314 0 l 518 0 l 518 193 l 314 193 l 314 0 z "},"¿":{"ha":811,"x_min":58,"x_max":758,"o":"m 490 451 l 300 451 l 300 436 q 276 358 300 394 q 215 286 251 322 q 143 209 179 250 q 83 117 107 168 q 58 1 58 67 q 147 -202 58 -125 q 397 -279 235 -279 q 587 -240 506 -279 q 713 -130 668 -200 q 758 35 758 -60 l 550 35 q 514 -62 550 -25 q 407 -100 478 -100 q 310 -68 342 -100 q 278 22 278 -36 q 299 102 278 65 q 352 174 321 139 q 415 245 383 208 q 469 326 447 282 q 490 425 490 369 l 490 451 m 497 747 l 293 747 l 293 554 l 497 554 l 497 747 z "},"·":{"ha":407,"x_min":78,"x_max":331,"o":"m 78 385 q 113 295 78 331 q 204 260 149 260 q 296 295 261 260 q 331 385 331 331 q 296 474 331 439 q 204 510 261 510 q 113 474 149 510 q 78 385 78 439 z "},"•":{"ha":500,"x_min":71,"x_max":429,"o":"m 71 385 q 122 258 71 308 q 251 207 174 207 q 381 258 332 207 q 429 385 429 308 q 381 512 429 461 q 251 563 332 563 q 122 512 174 563 q 71 385 71 461 z "},"*":{"ha":463,"x_min":39,"x_max":424,"o":"m 188 619 l 275 619 l 275 685 l 256 772 l 324 713 l 382 679 l 424 756 l 368 786 l 282 817 l 368 844 l 424 876 l 382 951 l 324 919 l 256 860 l 275 949 l 275 1013 l 188 1013 l 188 949 l 207 860 l 140 919 l 82 951 l 39 876 l 94 844 l 181 817 l 94 786 l 39 756 l 82 679 l 140 713 l 207 772 l 188 685 l 188 619 z "},"#":{"ha":965,"x_min":51,"x_max":911,"o":"m 190 0 l 381 0 l 381 238 l 590 238 l 590 0 l 776 0 l 776 238 l 911 238 l 911 408 l 776 408 l 776 614 l 911 614 l 911 785 l 776 785 l 776 1014 l 590 1014 l 590 785 l 381 785 l 381 1014 l 190 1014 l 190 785 l 51 785 l 51 614 l 190 614 l 190 408 l 51 408 l 51 238 l 190 238 l 190 0 m 381 408 l 381 614 l 590 614 l 590 408 l 381 408 z "},"/":{"ha":739,"x_min":46,"x_max":661,"o":"m 46 -114 l 249 -114 l 661 1013 l 457 1013 l 46 -114 z "},"\\":{"ha":739,"x_min":76,"x_max":693,"o":"m 490 -114 l 693 -114 l 281 1013 l 76 1013 l 490 -114 z "},"(":{"ha":515,"x_min":68,"x_max":497,"o":"m 315 -232 l 497 -232 q 381 -51 431 -158 q 303 181 331 56 q 275 435 275 306 q 303 688 275 563 q 381 919 331 813 q 497 1101 431 1026 l 315 1101 q 183 922 239 1029 q 98 689 128 814 q 68 435 68 564 q 98 181 68 307 q 183 -51 128 56 q 315 -232 239 -158 z "},")":{"ha":515,"x_min":18,"x_max":447,"o":"m 200 1101 l 18 1101 q 135 921 85 1028 q 213 689 185 814 q 240 435 240 564 q 213 182 240 307 q 135 -50 185 57 q 18 -232 85 -157 l 200 -232 q 332 -52 276 -160 q 417 181 388 56 q 447 435 447 306 q 417 688 447 563 q 332 921 388 814 q 200 1101 276 1028 z "},"{":{"ha":606,"x_min":60,"x_max":564,"o":"m 331 -232 l 564 -232 l 564 -82 l 382 -82 l 382 228 q 355 335 382 289 q 265 399 328 381 l 265 403 q 349 450 315 411 q 382 568 382 489 l 382 886 l 564 886 l 564 1038 l 331 1038 q 219 998 256 1038 q 183 900 183 958 l 183 575 q 159 497 183 526 q 96 468 135 468 l 60 468 l 60 319 l 96 319 q 158 292 133 319 q 183 215 183 265 l 183 -94 q 219 -192 183 -153 q 331 -232 256 -232 z "},"}":{"ha":606,"x_min":42,"x_max":546,"o":"m 275 1038 l 42 1038 l 42 888 l 224 888 l 224 578 q 251 471 224 517 q 340 407 278 425 l 340 403 q 257 356 290 394 q 224 238 224 317 l 224 -81 l 42 -81 l 42 -232 l 275 -232 q 386 -192 350 -232 q 422 -94 422 -153 l 422 231 q 447 308 422 279 q 510 338 471 338 l 546 338 l 546 486 l 510 486 q 447 513 472 486 q 422 590 422 540 l 422 900 q 386 998 422 958 q 275 1038 350 1038 z "},"[":{"ha":546,"x_min":122,"x_max":504,"o":"m 122 -232 l 504 -232 l 504 -82 l 321 -82 l 321 886 l 504 886 l 504 1038 l 122 1038 l 122 -232 z "},"]":{"ha":546,"x_min":42,"x_max":424,"o":"m 424 1038 l 42 1038 l 42 888 l 225 888 l 225 -81 l 42 -81 l 42 -232 l 424 -232 l 424 1038 z "},"-":{"ha":633,"x_min":88,"x_max":546,"o":"m 88 315 l 546 315 l 546 494 l 88 494 l 88 315 z "},"–":{"ha":818,"x_min":88,"x_max":732,"o":"m 88 315 l 732 315 l 732 494 l 88 494 l 88 315 z "},"—":{"ha":1058,"x_min":88,"x_max":971,"o":"m 88 315 l 971 315 l 971 494 l 88 494 l 88 315 z "},"_":{"ha":536,"x_min":0,"x_max":536,"o":"m 0 -179 l 536 -179 l 536 0 l 0 0 l 0 -179 z "},"‚":{"ha":342,"x_min":40,"x_max":264,"o":"m 40 -236 l 94 -235 q 218 -194 172 -233 q 264 -56 264 -156 l 264 193 l 61 193 l 61 0 l 153 0 l 153 -47 q 134 -106 153 -85 q 68 -129 115 -128 l 40 -129 l 40 -236 z "},"„":{"ha":642,"x_min":40,"x_max":564,"o":"m 40 -236 l 94 -235 q 218 -194 172 -233 q 264 -56 264 -156 l 264 193 l 61 193 l 61 0 l 153 0 l 153 -47 q 134 -106 153 -85 q 68 -129 115 -128 l 40 -129 l 40 -236 m 340 -236 l 394 -235 q 518 -194 472 -233 q 564 -56 564 -156 l 564 193 l 361 193 l 361 0 l 453 0 l 453 -47 q 434 -106 453 -85 q 368 -129 415 -128 l 340 -129 l 340 -236 z "},"“":{"ha":642,"x_min":78,"x_max":601,"o":"m 601 1014 l 547 1013 q 424 972 469 1011 q 378 833 378 933 l 378 585 l 581 585 l 581 778 l 489 778 l 489 825 q 508 884 489 863 q 574 907 526 906 l 601 907 l 601 1014 m 301 1014 l 247 1013 q 124 972 169 1011 q 78 833 78 933 l 78 585 l 281 585 l 281 778 l 189 778 l 189 825 q 208 884 189 863 q 274 907 226 906 l 301 907 l 301 1014 z "},"”":{"ha":642,"x_min":40,"x_max":564,"o":"m 40 582 l 94 583 q 218 624 172 585 q 264 763 264 663 l 264 1011 l 61 1011 l 61 818 l 153 818 l 153 771 q 134 712 153 733 q 68 689 115 690 l 40 689 l 40 582 m 340 582 l 394 583 q 518 624 472 585 q 564 763 564 663 l 564 1011 l 361 1011 l 361 818 l 453 818 l 453 771 q 434 712 453 733 q 368 689 415 690 l 340 689 l 340 582 z "},"‘":{"ha":342,"x_min":78,"x_max":301,"o":"m 301 1013 l 247 1011 q 124 971 169 1010 q 78 832 78 932 l 78 583 l 281 583 l 281 776 l 189 776 l 189 824 q 208 883 189 861 q 274 906 226 904 l 301 906 l 301 1013 z "},"’":{"ha":342,"x_min":40,"x_max":264,"o":"m 40 582 l 94 583 q 218 624 172 585 q 264 763 264 663 l 264 1011 l 61 1011 l 61 818 l 153 818 l 153 771 q 134 712 153 733 q 68 689 115 690 l 40 689 l 40 582 z "},"«":{"ha":758,"x_min":42,"x_max":721,"o":"m 217 0 l 401 0 l 239 375 l 401 747 l 217 747 l 42 375 l 217 0 m 536 0 l 721 0 l 557 375 l 721 747 l 536 747 l 361 375 l 536 0 z "},"»":{"ha":758,"x_min":38,"x_max":717,"o":"m 542 747 l 357 747 l 519 372 l 357 0 l 542 0 l 717 372 l 542 747 m 222 747 l 38 747 l 201 372 l 38 0 l 222 0 l 397 372 l 222 747 z "},"‹":{"ha":438,"x_min":42,"x_max":401,"o":"m 217 0 l 401 0 l 239 375 l 401 747 l 217 747 l 42 375 l 217 0 z "},"›":{"ha":438,"x_min":36,"x_max":396,"o":"m 221 747 l 36 747 l 199 372 l 36 0 l 221 0 l 396 372 l 221 747 z "},"\"":{"ha":593,"x_min":54,"x_max":540,"o":"m 196 525 l 243 786 l 243 1013 l 54 1013 l 54 786 l 101 525 l 196 525 m 493 525 l 540 786 l 540 1013 l 351 1013 l 351 786 l 399 525 l 493 525 z "},"'":{"ha":297,"x_min":54,"x_max":243,"o":"m 196 525 l 243 786 l 243 1013 l 54 1013 l 54 786 l 101 525 l 196 525 z "}," ":{"ha":314,"x_min":0,"x_max":0,"o":""}," ":{"ha":314,"x_min":0,"x_max":0,"o":""},"\r":{"ha":256,"x_min":0,"x_max":0,"o":""},"€":{"ha":1147,"x_min":54,"x_max":1093,"o":"m 54 342 l 157 342 q 314 80 194 174 q 633 -14 433 -14 q 858 31 758 -14 q 1019 158 957 76 q 1093 349 1082 240 l 860 349 q 780 227 843 271 q 633 183 717 183 q 475 224 539 183 q 389 342 411 265 l 640 342 l 657 453 l 378 453 l 378 560 l 672 560 l 689 668 l 389 668 q 470 784 410 740 q 633 828 531 828 q 778 787 715 828 q 860 665 842 746 l 1093 665 q 1022 854 1082 774 q 861 980 961 935 q 633 1025 761 1025 q 323 934 449 1025 q 157 668 197 843 l 54 668 l 54 560 l 142 560 q 140 507 140 535 l 140 503 q 142 453 140 478 l 54 453 l 54 342 z "},"₿":{"ha":976,"x_min":115,"x_max":933,"o":"m 115 0 l 276 0 l 276 -118 l 403 -118 l 403 0 l 506 0 l 506 -118 l 633 -118 l 633 1 q 851 79 769 13 q 933 283 933 146 q 882 447 933 382 q 739 519 831 511 l 739 529 q 864 608 821 547 q 907 754 907 669 q 842 936 907 868 q 633 1011 776 1004 l 633 1132 l 508 1132 l 508 1013 l 403 1013 l 403 1132 l 278 1132 l 278 1013 l 115 1013 l 115 0 m 336 599 l 336 847 l 540 847 q 636 823 600 847 q 672 740 672 799 l 672 708 q 638 628 672 657 q 540 599 604 599 l 336 599 m 336 165 l 336 438 l 553 438 q 658 406 622 438 q 694 321 694 375 l 694 286 q 656 196 694 226 q 553 165 617 165 l 336 165 z "},"¢":{"ha":828,"x_min":54,"x_max":775,"o":"m 346 -118 l 485 -118 l 485 -8 q 689 82 610 6 q 775 278 768 158 l 568 278 q 526 194 563 226 q 426 161 489 161 q 313 214 356 161 q 269 372 269 267 q 309 528 269 469 q 428 586 349 586 q 518 558 481 586 q 565 472 556 529 l 772 472 q 733 610 769 550 q 632 709 696 671 q 485 757 568 747 l 485 861 l 346 861 l 346 751 q 132 626 210 726 q 54 374 54 525 q 133 120 54 221 q 346 -6 211 19 l 346 -118 z "},"¤":{"ha":925,"x_min":71,"x_max":854,"o":"m 190 96 l 329 236 q 391 217 358 224 q 463 210 424 210 q 594 236 533 210 l 735 96 l 854 215 l 721 347 q 747 414 739 379 q 756 483 756 449 q 719 624 756 561 l 853 754 l 735 875 l 593 732 q 527 752 561 746 q 463 758 493 758 q 395 751 431 758 q 332 732 360 744 l 190 875 l 72 754 l 204 624 q 169 483 169 563 q 177 415 169 450 q 203 347 185 379 l 71 215 l 190 96 m 463 374 q 381 404 414 374 q 347 483 347 435 q 381 565 347 533 q 463 597 415 597 q 545 565 511 597 q 579 483 579 533 q 545 404 579 435 q 463 374 511 374 z "},"$":{"ha":947,"x_min":53,"x_max":894,"o":"m 410 -118 l 538 -118 l 538 -11 q 797 78 700 1 q 894 303 894 156 q 849 474 894 411 q 724 569 803 536 q 546 618 644 601 q 422 642 474 631 q 344 678 371 654 q 317 746 317 701 q 358 824 317 796 q 471 853 399 853 q 597 819 553 853 q 643 722 642 785 l 872 722 q 785 931 871 853 q 538 1022 699 1008 l 538 1132 l 410 1132 l 410 1022 q 166 933 257 1010 q 75 718 75 857 q 163 521 75 588 q 406 424 251 454 q 533 397 478 410 q 621 358 589 383 q 653 283 653 333 q 478 163 653 163 q 338 199 389 163 q 283 315 286 236 l 53 315 q 143 92 53 181 q 410 -11 233 3 l 410 -118 z "},"ƒ":{"ha":790,"x_min":24,"x_max":739,"o":"m 24 -118 l 225 -118 q 367 -75 311 -118 q 435 67 422 -32 l 492 496 l 713 496 l 713 667 l 515 667 l 539 840 l 739 840 l 739 1013 l 528 1013 q 407 988 450 1013 q 344 921 364 963 q 317 828 324 879 l 296 667 l 93 667 l 93 496 l 271 496 l 211 54 l 24 54 l 24 -118 z "},"₺":{"ha":928,"x_min":17,"x_max":875,"o":"m 128 0 l 303 0 q 593 56 468 0 q 792 218 718 111 q 875 481 865 325 l 654 481 q 561 282 642 357 q 340 204 481 207 l 340 440 l 535 521 l 535 681 l 340 600 l 340 711 l 535 793 l 535 953 l 340 874 l 340 1013 l 128 1013 l 128 792 l 17 743 l 17 585 l 128 628 l 128 518 l 17 472 l 17 313 l 128 357 l 128 0 z "},"₹":{"ha":926,"x_min":115,"x_max":874,"o":"m 478 0 l 710 0 l 710 226 q 667 374 710 328 q 554 435 625 421 l 554 444 q 687 502 632 460 q 758 615 742 544 l 874 615 l 874 750 l 760 750 q 731 821 754 788 q 675 871 707 854 l 675 879 l 874 879 l 874 1013 l 115 1013 l 115 840 l 340 840 q 473 815 429 840 q 528 739 517 790 l 115 739 l 115 626 l 526 626 q 474 552 517 579 q 344 525 432 525 l 115 525 l 115 365 l 321 365 q 399 357 364 365 q 456 319 435 349 q 478 226 478 289 l 478 0 z "},"₪":{"ha":1161,"x_min":115,"x_max":1046,"o":"m 565 0 l 1046 0 l 1046 1013 l 864 1013 l 864 171 l 536 171 l 536 760 l 388 760 l 388 183 q 410 71 388 111 q 472 15 432 31 q 565 0 513 0 m 115 0 l 297 0 l 297 843 l 626 843 l 626 254 l 775 254 l 775 829 q 753 942 775 903 q 690 997 731 982 q 596 1013 650 1013 l 115 1013 l 115 0 z "},"£":{"ha":903,"x_min":35,"x_max":843,"o":"m 35 0 l 843 0 l 843 290 l 661 290 l 661 182 l 363 182 l 363 415 l 599 415 l 599 575 l 363 575 l 363 700 q 394 798 363 761 q 490 835 426 835 q 584 803 549 835 q 619 706 619 771 l 619 683 l 824 683 l 824 718 q 736 941 824 858 q 489 1024 649 1024 q 238 941 333 1024 q 143 701 143 858 l 143 575 l 35 575 l 35 415 l 143 415 l 143 182 l 35 182 l 35 0 z "},"₩":{"ha":1356,"x_min":38,"x_max":1321,"o":"m 233 0 l 543 0 l 674 707 l 683 707 l 813 0 l 1121 0 l 1204 428 l 1321 428 l 1321 586 l 1235 586 l 1318 1013 l 1068 1013 l 993 508 l 960 244 l 949 244 l 818 1013 l 540 1013 l 413 246 l 401 246 l 365 511 l 288 1013 l 38 1013 l 119 586 l 39 586 l 39 428 l 150 428 l 233 0 z "},"¥":{"ha":975,"x_min":31,"x_max":942,"o":"m 378 0 l 596 0 l 596 142 l 842 142 l 842 289 l 596 289 l 596 396 l 842 396 l 842 546 l 686 546 l 942 1013 l 710 1013 l 490 581 l 479 581 l 267 1013 l 31 1013 l 290 546 l 133 546 l 133 396 l 378 396 l 378 289 l 133 289 l 133 142 l 378 142 l 378 0 z "},"+":{"ha":765,"x_min":53,"x_max":713,"o":"m 297 171 l 468 171 l 468 418 l 713 418 l 713 585 l 468 585 l 468 831 l 297 831 l 297 585 l 53 585 l 53 418 l 297 418 l 297 171 z "},"−":{"ha":943,"x_min":143,"x_max":801,"o":"m 143 418 l 801 418 l 801 585 l 143 585 l 143 418 z "},"×":{"ha":836,"x_min":110,"x_max":728,"o":"m 222 192 l 418 388 l 614 192 l 728 306 l 533 501 l 728 696 l 614 810 l 418 615 l 222 810 l 110 696 l 306 501 l 110 306 l 222 192 z "},"÷":{"ha":940,"x_min":121,"x_max":821,"o":"m 376 676 l 565 676 l 565 836 l 376 836 l 376 676 m 121 418 l 821 418 l 821 585 l 121 585 l 121 418 m 376 167 l 565 167 l 565 325 l 376 325 l 376 167 z "},"=":{"ha":942,"x_min":143,"x_max":800,"o":"m 143 581 l 800 581 l 800 747 l 143 747 l 143 581 m 143 254 l 800 254 l 800 421 l 143 421 l 143 254 z "},"≠":{"ha":883,"x_min":114,"x_max":771,"o":"m 183 96 l 346 96 l 415 254 l 771 254 l 771 421 l 489 421 l 560 581 l 771 581 l 771 747 l 633 747 l 703 906 l 542 906 l 472 747 l 114 747 l 114 581 l 397 581 l 328 421 l 114 421 l 114 254 l 253 254 l 183 96 z "},">":{"ha":982,"x_min":143,"x_max":839,"o":"m 143 126 l 839 379 l 839 619 l 143 875 l 143 663 l 626 507 l 626 492 l 143 339 l 143 126 z "},"<":{"ha":982,"x_min":143,"x_max":839,"o":"m 839 875 l 143 622 l 143 382 l 839 126 l 839 339 l 356 494 l 356 510 l 839 663 l 839 875 z "},"≥":{"ha":978,"x_min":140,"x_max":838,"o":"m 140 211 l 838 438 l 838 672 l 140 892 l 140 700 l 626 560 l 626 549 l 140 401 l 140 211 m 140 0 l 838 0 l 838 150 l 140 150 l 140 0 z "},"≤":{"ha":978,"x_min":140,"x_max":838,"o":"m 838 211 l 838 401 l 351 549 l 351 560 l 838 700 l 838 892 l 140 672 l 140 438 l 838 211 m 140 0 l 838 0 l 838 150 l 140 150 l 140 0 z "},"±":{"ha":896,"x_min":99,"x_max":799,"o":"m 361 258 l 533 258 l 533 467 l 799 467 l 799 633 l 533 633 l 533 840 l 361 840 l 361 633 l 99 633 l 99 467 l 361 467 l 361 258 m 99 0 l 799 0 l 799 150 l 99 150 l 99 0 z "},"≈":{"ha":889,"x_min":138,"x_max":754,"o":"m 144 292 l 249 292 q 260 347 246 319 q 314 374 275 374 q 368 361 342 374 q 424 331 394 349 q 491 301 454 314 q 574 289 528 289 q 703 349 651 289 q 747 536 754 408 l 703 536 q 739 613 726 567 q 747 725 751 660 l 643 725 q 622 665 642 689 q 560 640 601 640 q 499 653 528 640 q 442 682 471 665 q 381 711 414 699 q 308 724 349 724 q 226 701 267 724 q 161 625 185 678 q 144 479 138 572 l 188 479 q 151 404 164 450 q 144 292 139 358 m 308 535 q 256 526 281 535 q 278 552 264 542 q 314 563 292 563 q 368 549 342 563 q 425 519 394 536 q 492 490 456 503 q 574 476 528 476 q 628 485 603 476 q 560 451 606 451 q 499 464 528 451 q 442 493 471 476 q 381 522 414 510 q 308 535 349 535 z "},"¬":{"ha":954,"x_min":147,"x_max":807,"o":"m 644 197 l 807 197 l 807 585 l 147 585 l 147 418 l 644 418 l 644 197 z "},"~":{"ha":893,"x_min":139,"x_max":757,"o":"m 144 385 l 250 385 q 263 440 247 413 q 315 468 279 468 q 369 455 343 468 q 426 424 396 442 q 494 394 457 407 q 576 381 531 381 q 662 403 619 381 q 731 481 704 426 q 750 632 757 536 l 644 632 q 624 571 643 594 q 564 547 604 547 q 501 560 531 547 q 444 589 472 572 q 383 618 415 606 q 310 631 350 631 q 222 606 263 631 q 160 526 182 581 q 144 385 139 472 z "},"^":{"ha":686,"x_min":33,"x_max":651,"o":"m 33 653 l 229 653 l 344 850 l 456 653 l 651 653 l 454 1013 l 232 1013 l 33 653 z "},"∞":{"ha":1285,"x_min":54,"x_max":1229,"o":"m 360 183 q 525 233 454 183 q 642 360 596 283 q 759 233 690 283 q 925 183 828 183 q 1081 224 1013 183 q 1190 338 1150 265 q 1229 504 1229 410 q 1190 669 1229 596 q 1081 786 1150 743 q 924 829 1013 829 q 756 775 826 829 q 642 647 686 721 q 526 775 596 721 q 361 829 457 829 q 204 786 274 829 q 94 670 135 743 q 54 504 54 597 q 94 336 54 408 q 204 224 135 264 q 360 183 274 183 m 372 379 q 285 417 317 379 q 254 507 254 454 q 286 597 254 560 q 372 633 318 633 q 470 597 429 633 q 544 508 511 561 q 469 417 511 454 q 372 379 428 379 m 910 379 q 815 416 856 379 q 739 508 774 453 q 813 597 772 561 q 910 633 854 633 q 997 597 965 633 q 1029 507 1029 560 q 997 417 1029 456 q 910 379 965 379 z "},"∅":{"ha":1129,"x_min":64,"x_max":1067,"o":"m 565 -3 q 762 34 671 -3 q 922 139 853 71 q 1028 301 990 207 q 1067 508 1067 394 q 1028 713 1067 619 q 922 874 990 806 q 762 978 853 942 q 565 1015 671 1015 q 368 978 460 1015 q 208 874 276 942 q 102 713 140 806 q 64 508 64 621 q 102 301 64 394 q 208 139 140 207 q 368 34 276 71 q 565 -3 460 -3 m 154 508 q 210 728 154 632 q 358 878 265 824 q 565 932 451 932 q 756 887 668 932 q 899 764 843 842 l 189 329 q 154 508 154 413 m 565 81 q 372 128 460 81 q 228 258 283 176 l 939 692 q 976 508 976 607 q 922 288 976 385 q 774 135 867 190 q 565 81 681 81 z "},"∫":{"ha":621,"x_min":13,"x_max":608,"o":"m 13 -210 l 235 -210 q 368 -161 319 -210 q 417 -26 417 -112 l 417 840 l 608 840 l 608 1013 l 386 1013 q 254 965 304 1013 q 204 826 204 917 l 204 -39 l 13 -39 l 13 -210 z "},"∏":{"ha":1119,"x_min":115,"x_max":1003,"o":"m 115 -210 l 342 -210 l 342 810 l 778 810 l 778 -210 l 1003 -210 l 1003 1013 l 115 1013 l 115 -210 z "},"∑":{"ha":933,"x_min":115,"x_max":818,"o":"m 115 -210 l 818 -210 l 818 10 l 575 10 l 397 8 l 397 21 l 728 401 l 397 782 l 397 794 l 575 793 l 818 793 l 818 1013 l 115 1013 l 115 778 l 428 417 l 428 388 l 115 25 l 115 -210 z "},"√":{"ha":1038,"x_min":13,"x_max":1025,"o":"m 340 -210 l 640 -210 l 1025 1013 l 785 1013 l 494 19 l 486 19 l 317 643 l 13 643 l 13 442 l 142 442 l 340 -210 z "},"%":{"ha":1240,"x_min":68,"x_max":1172,"o":"m 301 471 q 482 546 429 471 q 535 749 535 621 q 482 952 535 878 q 301 1026 429 1026 q 121 952 174 1026 q 68 749 68 878 q 121 546 68 621 q 301 471 174 471 m 261 0 l 399 0 l 978 1013 l 842 1013 l 261 0 m 301 592 q 245 613 267 592 q 224 686 224 635 l 224 813 q 244 883 224 861 q 301 906 264 906 q 358 885 336 906 q 379 813 379 865 l 379 686 q 358 615 379 638 q 301 592 338 592 m 938 -11 q 1119 64 1067 -11 q 1172 267 1172 139 q 1119 469 1172 394 q 938 544 1067 544 q 758 469 811 544 q 706 267 706 394 q 758 64 706 139 q 938 -11 811 -11 m 938 110 q 883 131 904 110 q 861 204 861 153 l 861 329 q 938 425 861 425 q 994 403 972 425 q 1015 329 1015 382 l 1015 204 q 995 132 1015 154 q 938 110 975 110 z "},"↑":{"ha":838,"x_min":115,"x_max":722,"o":"m 326 110 l 511 110 l 511 654 l 722 511 l 722 700 l 419 903 l 115 700 l 115 511 l 326 654 l 326 110 z "},"→":{"ha":1024,"x_min":115,"x_max":908,"o":"m 115 600 l 115 414 l 660 414 l 518 203 l 706 203 l 908 507 l 706 811 l 518 811 l 660 600 l 115 600 z "},"↓":{"ha":838,"x_min":115,"x_max":722,"o":"m 326 903 l 511 903 l 511 358 l 722 501 l 722 313 l 419 110 l 115 313 l 115 501 l 326 358 l 326 903 z "},"←":{"ha":1024,"x_min":115,"x_max":908,"o":"m 908 600 l 908 414 l 364 414 l 506 203 l 318 203 l 115 507 l 318 811 l 506 811 l 364 600 l 908 600 z "},"↔":{"ha":1172,"x_min":58,"x_max":1115,"o":"m 260 203 l 449 203 l 307 414 l 865 414 l 724 203 l 913 203 l 1115 507 l 913 811 l 724 811 l 865 600 l 307 600 l 449 811 l 260 811 l 58 507 l 260 203 z "},"☹":{"ha":1176,"x_min":64,"x_max":1114,"o":"m 589 -14 q 799 24 703 -14 q 965 131 894 61 q 1075 297 1036 200 q 1114 510 1114 393 q 1075 718 1114 624 q 965 882 1036 813 q 799 989 894 951 q 589 1026 703 1026 q 381 989 476 1026 q 214 883 285 951 q 103 719 143 814 q 64 510 64 625 q 103 297 64 393 q 214 131 143 200 q 381 24 285 61 q 589 -14 476 -14 m 589 74 q 363 128 461 74 q 210 281 265 183 q 156 510 156 379 q 210 735 156 639 q 363 885 265 832 q 589 939 461 939 q 815 885 718 939 q 967 735 913 832 q 1022 510 1022 639 q 967 281 1022 379 q 815 128 913 183 q 589 74 718 74 m 467 543 q 521 567 500 543 q 542 638 542 590 q 523 704 542 678 q 467 731 504 731 q 413 707 433 731 q 392 638 392 683 q 410 570 392 597 q 467 543 429 543 m 715 543 q 769 567 747 543 q 792 638 792 590 q 772 703 792 676 q 715 731 753 731 q 660 707 682 731 q 639 638 639 683 q 658 570 639 597 q 715 543 678 543 m 276 253 l 354 253 q 447 342 385 308 q 589 375 510 375 q 730 342 667 375 q 824 253 793 310 l 901 253 q 785 394 871 344 q 589 444 700 444 q 394 394 479 444 q 276 253 308 344 z "},"☺":{"ha":1176,"x_min":64,"x_max":1114,"o":"m 589 -14 q 799 24 703 -14 q 965 131 894 61 q 1075 297 1036 200 q 1114 510 1114 393 q 1075 718 1114 624 q 965 882 1036 813 q 799 989 894 951 q 589 1026 703 1026 q 381 989 476 1026 q 214 883 285 951 q 103 719 143 814 q 64 510 64 625 q 103 297 64 393 q 214 131 143 200 q 381 24 285 61 q 589 -14 476 -14 m 589 74 q 363 128 461 74 q 210 281 265 183 q 156 510 156 379 q 210 735 156 639 q 363 885 265 832 q 589 939 461 939 q 815 885 718 939 q 967 735 913 832 q 1022 510 1022 639 q 967 281 1022 379 q 815 128 913 183 q 589 74 718 74 m 467 543 q 521 567 500 543 q 542 638 542 590 q 523 704 542 678 q 467 731 504 731 q 413 707 433 731 q 392 638 392 683 q 410 570 392 597 q 467 543 429 543 m 715 543 q 769 567 747 543 q 792 638 792 590 q 772 703 792 676 q 715 731 753 731 q 660 707 682 731 q 639 638 639 683 q 658 570 639 597 q 715 543 678 543 m 589 165 q 742 197 674 165 q 857 285 811 229 q 915 417 903 342 l 953 417 l 953 458 l 783 458 l 783 417 l 831 417 q 748 292 813 339 q 589 246 683 246 q 431 292 496 246 q 347 417 365 339 l 394 417 l 394 458 l 225 458 l 225 417 l 263 417 q 322 285 276 342 q 435 197 367 229 q 589 165 504 165 z "},"✓":{"ha":1333,"x_min":160,"x_max":1172,"o":"m 481 117 l 1172 749 l 1054 890 l 496 376 l 292 626 l 160 506 l 481 117 z "},"@":{"ha":1239,"x_min":54,"x_max":1183,"o":"m 636 -140 q 774 -126 707 -140 q 896 -86 840 -111 q 986 -29 951 -61 l 932 79 q 809 16 881 40 q 647 -8 738 -8 q 413 44 513 -8 q 260 199 314 97 q 206 449 206 301 q 255 674 206 574 q 400 834 304 775 q 638 893 496 893 q 844 849 753 893 q 988 716 935 804 q 1042 499 1042 628 q 1008 335 1042 396 q 917 274 975 274 q 859 307 879 274 q 844 418 839 340 l 865 700 l 772 700 l 756 626 l 744 626 q 692 690 731 665 q 606 714 654 714 q 434 635 500 714 q 368 413 368 557 q 426 220 368 290 q 581 150 483 150 q 682 178 640 150 q 742 253 724 207 l 751 253 q 811 174 768 204 q 918 143 854 143 q 1053 188 993 143 q 1149 315 1114 232 q 1183 508 1183 397 q 1113 780 1183 664 q 918 960 1042 896 q 633 1025 794 1025 q 399 983 506 1025 q 216 863 293 940 q 97 677 139 785 q 54 440 54 569 q 124 135 54 267 q 324 -68 193 4 q 636 -140 454 -140 m 606 275 q 535 313 563 275 q 507 419 507 350 q 535 542 507 494 q 619 589 563 589 q 692 552 665 589 q 722 438 718 515 q 690 319 718 364 q 606 275 661 275 z "},"&":{"ha":1036,"x_min":69,"x_max":1031,"o":"m 385 -14 q 553 15 472 -14 q 685 100 633 43 l 775 0 l 1031 0 l 828 221 q 868 297 850 253 q 894 385 886 342 l 1011 385 l 1011 543 l 753 543 q 740 440 751 492 q 707 353 728 389 l 550 525 l 550 533 q 688 631 636 565 q 739 782 739 696 q 704 908 739 853 q 608 994 669 963 q 465 1026 547 1026 q 311 994 378 1026 q 206 906 244 963 q 168 774 168 849 q 198 653 168 710 q 279 543 228 596 q 125 426 181 501 q 69 263 69 351 q 110 113 69 174 q 223 19 151 51 q 385 -14 294 -14 m 443 632 q 393 694 414 661 q 372 763 372 726 q 398 828 372 801 q 467 856 424 856 q 531 830 507 856 q 556 764 556 804 q 528 688 556 722 q 451 632 500 653 l 443 632 m 421 161 q 321 195 361 161 q 281 289 281 229 q 309 374 281 338 q 385 429 338 410 l 568 226 q 421 161 518 161 z "},"¶":{"ha":1093,"x_min":13,"x_max":976,"o":"m 310 -210 l 510 -210 l 510 832 l 669 832 l 669 -210 l 869 -210 l 869 832 l 976 832 l 976 1013 l 310 1013 q 92 944 171 1013 q 13 749 13 876 q 91 558 13 629 q 310 492 169 488 l 310 -210 z "},"©":{"ha":1229,"x_min":65,"x_max":1167,"o":"m 617 -42 q 903 26 779 -42 q 1097 214 1026 93 q 1167 494 1167 335 l 1167 518 q 1097 800 1167 679 q 903 988 1026 921 q 617 1054 779 1054 q 331 988 456 1054 q 135 800 206 921 q 65 518 65 679 l 65 494 q 135 214 65 335 q 331 26 206 93 q 617 -42 456 -42 m 617 57 q 384 112 485 57 q 227 265 283 167 q 171 494 171 364 l 171 518 q 227 747 171 649 q 384 901 283 846 q 617 956 485 956 q 847 901 747 956 q 1004 747 947 846 q 1061 518 1061 649 l 1061 494 q 1004 265 1061 364 q 847 112 947 167 q 617 57 747 57 m 626 182 q 781 213 714 182 q 888 299 849 244 q 931 424 928 354 l 754 424 q 709 352 744 375 q 628 329 674 329 q 528 365 568 329 q 489 471 489 400 l 489 543 q 527 649 489 613 q 628 686 565 686 q 709 663 674 686 q 754 590 744 639 l 931 590 q 888 715 928 660 q 781 801 849 769 q 626 832 714 832 q 454 793 528 832 q 340 683 381 754 q 300 511 300 611 l 300 503 q 340 333 300 406 q 453 222 379 261 q 626 182 526 182 z "},"®":{"ha":865,"x_min":65,"x_max":800,"o":"m 432 297 q 618 343 535 297 q 751 472 701 389 q 800 661 800 554 q 751 851 800 769 q 618 979 701 933 q 432 1025 535 1025 q 245 979 328 1025 q 114 851 163 933 q 65 661 65 769 q 114 472 65 554 q 245 343 163 389 q 432 297 328 297 m 431 361 q 278 399 347 361 q 169 504 210 436 q 129 661 129 572 q 170 820 129 751 q 280 928 211 889 q 432 967 349 967 q 585 928 517 967 q 693 821 653 889 q 733 663 733 753 q 693 506 733 574 q 584 399 653 438 q 431 361 515 361 m 289 504 l 388 504 l 388 613 l 443 613 q 478 601 469 613 q 488 569 488 590 l 488 546 q 493 504 488 515 l 593 504 q 588 525 589 514 q 588 546 588 536 l 588 579 q 575 627 588 608 q 535 650 563 646 l 535 651 q 578 681 563 658 q 594 735 594 704 q 574 801 594 779 q 521 831 553 824 q 456 839 489 839 l 289 839 l 289 504 m 440 764 q 492 722 492 764 q 480 690 492 703 q 440 676 468 676 l 388 676 l 388 764 l 440 764 z "},"℗":{"ha":1229,"x_min":65,"x_max":1167,"o":"m 617 -42 q 903 26 779 -42 q 1097 214 1026 93 q 1167 494 1167 335 l 1167 518 q 1097 800 1167 679 q 903 988 1026 921 q 617 1054 779 1054 q 331 988 456 1054 q 135 800 206 921 q 65 518 65 679 l 65 494 q 135 214 65 335 q 331 26 206 93 q 617 -42 456 -42 m 617 57 q 384 112 485 57 q 227 265 283 167 q 171 494 171 364 l 171 518 q 227 747 171 649 q 384 901 283 846 q 617 956 485 956 q 847 901 747 956 q 1004 747 947 846 q 1061 518 1061 649 l 1061 494 q 1004 265 1061 364 q 847 112 947 167 q 617 57 747 57 m 407 231 l 563 231 l 563 417 l 671 417 q 838 467 785 417 q 892 600 892 518 q 836 735 892 688 q 672 782 781 782 l 407 782 l 407 231 m 633 675 q 706 659 676 675 q 735 596 735 643 q 706 531 735 547 q 633 515 676 515 l 563 515 l 563 675 l 633 675 z "},"™":{"ha":1083,"x_min":8,"x_max":1022,"o":"m 458 578 l 586 578 l 586 725 l 585 853 l 589 853 l 689 578 l 792 578 l 892 853 l 896 853 l 893 725 l 894 578 l 1022 578 l 1022 1013 l 839 1013 l 744 746 l 739 746 l 642 1013 l 458 1013 l 458 578 m 131 578 l 268 578 l 268 896 l 396 896 l 396 1013 l 8 1013 l 8 896 l 131 896 l 131 578 z "},"°":{"ha":611,"x_min":53,"x_max":558,"o":"m 306 556 q 436 585 379 556 q 526 667 493 614 q 558 790 558 721 q 526 914 558 861 q 436 996 493 967 q 306 1025 379 1025 q 176 996 233 1025 q 85 914 118 967 q 53 790 53 861 q 85 667 53 721 q 176 585 118 614 q 306 556 233 556 m 306 693 q 235 719 264 693 q 206 790 206 746 q 235 862 206 836 q 306 888 264 888 q 377 862 347 888 q 407 790 407 836 q 377 719 407 746 q 306 693 347 693 z "},"|":{"ha":424,"x_min":115,"x_max":307,"o":"m 115 -93 l 307 -93 l 307 1013 l 115 1013 l 115 -93 z "},"¦":{"ha":424,"x_min":115,"x_max":307,"o":"m 115 540 l 307 540 l 307 1013 l 115 1013 l 115 540 m 115 -93 l 307 -93 l 307 379 l 115 379 l 115 -93 z "},"̈":{"ha":0,"x_min":60,"x_max":586,"o":"m 60 1032 l 274 1032 l 274 1204 l 60 1204 l 60 1032 m 372 1032 l 586 1032 l 586 1204 l 372 1204 l 372 1032 z "},"̇":{"ha":0,"x_min":60,"x_max":274,"o":"m 60 1032 l 274 1032 l 274 1204 l 60 1204 l 60 1032 z "},"̀":{"ha":0,"x_min":60,"x_max":350,"o":"m 189 1022 l 350 1022 l 271 1204 l 60 1204 l 189 1022 z "},"́":{"ha":0,"x_min":60,"x_max":349,"o":"m 60 1022 l 221 1022 l 349 1204 l 138 1204 l 60 1022 z "},"̋":{"ha":0,"x_min":60,"x_max":658,"o":"m 60 1022 l 214 1022 l 342 1204 l 140 1204 l 60 1022 m 324 1022 l 493 1022 l 658 1204 l 446 1204 l 324 1022 z "},"̂":{"ha":0,"x_min":60,"x_max":579,"o":"m 60 1022 l 239 1022 l 319 1118 l 399 1022 l 579 1022 l 421 1204 l 218 1204 l 60 1022 z "},"̌":{"ha":0,"x_min":60,"x_max":579,"o":"m 219 1022 l 422 1022 l 579 1204 l 400 1204 l 319 1107 l 240 1204 l 60 1204 l 219 1022 z "},"̆":{"ha":0,"x_min":60,"x_max":526,"o":"m 294 1013 q 464 1072 401 1013 q 526 1229 526 1131 l 389 1229 q 363 1157 389 1182 q 294 1132 336 1132 q 226 1156 251 1132 q 200 1229 200 1181 l 60 1229 q 125 1072 61 1131 q 294 1013 189 1013 z "},"̊":{"ha":0,"x_min":60,"x_max":394,"o":"m 228 1015 q 349 1059 303 1015 q 394 1172 394 1103 q 349 1285 394 1242 q 228 1328 303 1328 q 106 1285 151 1328 q 60 1172 60 1242 q 106 1059 60 1103 q 228 1015 151 1015 m 228 1111 q 185 1128 201 1111 q 168 1172 168 1146 q 185 1216 168 1200 q 228 1232 201 1232 q 271 1216 254 1232 q 288 1172 288 1200 q 271 1128 288 1146 q 228 1111 254 1111 z "},"̃":{"ha":0,"x_min":60,"x_max":574,"o":"m 400 1032 q 497 1066 450 1032 q 574 1179 543 1100 l 486 1232 q 460 1199 478 1218 q 404 1181 442 1181 q 346 1192 371 1181 q 294 1217 321 1204 q 231 1229 268 1229 q 140 1201 188 1231 q 60 1090 93 1172 l 144 1033 q 181 1068 161 1053 q 229 1083 200 1083 q 285 1071 261 1083 q 336 1046 310 1058 q 400 1032 363 1033 z "},"̄":{"ha":0,"x_min":60,"x_max":554,"o":"m 60 1043 l 554 1043 l 554 1183 l 60 1183 l 60 1043 z "},"̒":{"ha":0,"x_min":58,"x_max":257,"o":"m 58 1031 l 231 1031 l 231 1197 l 156 1197 l 156 1217 q 173 1268 156 1250 q 232 1286 190 1286 l 257 1286 l 257 1378 l 217 1378 q 100 1338 142 1378 q 58 1225 58 1299 l 58 1031 z "},"̦":{"ha":0,"x_min":75,"x_max":279,"o":"m 75 -436 l 125 -436 q 237 -397 194 -435 q 279 -271 279 -360 l 279 -79 l 83 -79 l 83 -232 l 182 -232 l 182 -254 q 165 -309 182 -289 q 104 -331 147 -329 l 75 -329 l 75 -436 z "},"̧":{"ha":0,"x_min":58,"x_max":468,"o":"m 265 -354 q 410 -312 351 -354 q 468 -196 468 -271 q 433 -102 468 -139 q 331 -61 397 -65 l 331 32 l 211 32 l 211 -131 l 246 -131 q 301 -143 282 -131 q 319 -186 319 -156 q 303 -229 319 -212 q 256 -246 288 -246 q 210 -228 225 -246 q 193 -192 194 -211 l 58 -192 q 86 -278 58 -242 q 161 -335 114 -315 q 265 -354 208 -354 z "},"̨":{"ha":0,"x_min":56,"x_max":364,"o":"m 218 -276 l 336 -276 l 364 -142 l 276 -142 q 210 -121 225 -142 q 206 -57 194 -100 l 225 17 l 135 13 q 80 -68 104 -26 q 56 -154 56 -110 q 98 -244 56 -212 q 218 -276 140 -276 z "},"̵":{"ha":0,"x_min":82,"x_max":526,"o":"m 82 315 l 526 315 l 526 446 l 82 446 l 82 315 z "},"̶":{"ha":0,"x_min":100,"x_max":1196,"o":"m 100 315 l 1196 315 l 1196 478 l 100 478 l 100 315 z "},"̷":{"ha":0,"x_min":81,"x_max":788,"o":"m 81 -28 l 197 -28 l 788 792 l 669 792 l 81 -28 z "},"̸":{"ha":0,"x_min":114,"x_max":1053,"o":"m 114 -28 l 275 -28 l 1053 1053 l 890 1053 l 114 -28 z "},"¨":{"ha":590,"x_min":60,"x_max":586,"o":"m 60 1032 l 274 1032 l 274 1204 l 60 1204 l 60 1032 m 372 1032 l 586 1032 l 586 1204 l 372 1204 l 372 1032 z "},"˙":{"ha":333,"x_min":60,"x_max":274,"o":"m 60 1032 l 274 1032 l 274 1204 l 60 1204 l 60 1032 z "},"`":{"ha":410,"x_min":60,"x_max":350,"o":"m 189 1022 l 350 1022 l 271 1204 l 60 1204 l 189 1022 z "},"´":{"ha":410,"x_min":60,"x_max":349,"o":"m 60 1022 l 221 1022 l 349 1204 l 138 1204 l 60 1022 z "},"˝":{"ha":718,"x_min":60,"x_max":658,"o":"m 60 1022 l 214 1022 l 342 1204 l 140 1204 l 60 1022 m 324 1022 l 493 1022 l 658 1204 l 446 1204 l 324 1022 z "},"ˆ":{"ha":639,"x_min":60,"x_max":579,"o":"m 60 1022 l 239 1022 l 319 1118 l 399 1022 l 579 1022 l 421 1204 l 218 1204 l 60 1022 z "},"ˇ":{"ha":640,"x_min":60,"x_max":579,"o":"m 219 1022 l 422 1022 l 579 1204 l 400 1204 l 319 1107 l 240 1204 l 60 1204 l 219 1022 z "},"˘":{"ha":586,"x_min":60,"x_max":526,"o":"m 294 1013 q 464 1072 401 1013 q 526 1229 526 1131 l 389 1229 q 363 1157 389 1182 q 294 1132 336 1132 q 226 1156 251 1132 q 200 1229 200 1181 l 60 1229 q 125 1072 61 1131 q 294 1013 189 1013 z "},"˚":{"ha":454,"x_min":60,"x_max":394,"o":"m 228 1015 q 349 1059 303 1015 q 394 1172 394 1103 q 349 1285 394 1242 q 228 1328 303 1328 q 106 1285 151 1328 q 60 1172 60 1242 q 106 1059 60 1103 q 228 1015 151 1015 m 228 1111 q 185 1128 201 1111 q 168 1172 168 1146 q 185 1216 168 1200 q 228 1232 201 1232 q 271 1216 254 1232 q 288 1172 288 1200 q 271 1128 288 1146 q 228 1111 254 1111 z "},"˜":{"ha":633,"x_min":60,"x_max":574,"o":"m 400 1032 q 497 1066 450 1032 q 574 1179 543 1100 l 486 1232 q 460 1199 478 1218 q 404 1181 442 1181 q 346 1192 371 1181 q 294 1217 321 1204 q 231 1229 268 1229 q 140 1201 188 1231 q 60 1090 93 1172 l 144 1033 q 181 1068 161 1053 q 229 1083 200 1083 q 285 1071 261 1083 q 336 1046 310 1058 q 400 1032 363 1033 z "},"¯":{"ha":615,"x_min":60,"x_max":554,"o":"m 60 1043 l 554 1043 l 554 1183 l 60 1183 l 60 1043 z "},"¸":{"ha":528,"x_min":58,"x_max":468,"o":"m 265 -354 q 410 -312 351 -354 q 468 -196 468 -271 q 433 -102 468 -139 q 331 -61 397 -65 l 331 32 l 211 32 l 211 -131 l 246 -131 q 301 -143 282 -131 q 319 -186 319 -156 q 303 -229 319 -212 q 256 -246 288 -246 q 210 -228 225 -246 q 193 -192 194 -211 l 58 -192 q 86 -278 58 -242 q 161 -335 114 -315 q 265 -354 208 -354 z "},"˛":{"ha":424,"x_min":57,"x_max":364,"o":"m 218 -276 l 336 -276 l 364 -142 l 278 -142 q 210 -121 225 -142 q 206 -57 194 -100 l 225 17 l 135 13 q 81 -68 104 -26 q 57 -154 57 -110 q 99 -244 57 -212 q 218 -276 140 -276 z "}}}
